<svg width="1472" height="1037" viewBox="0 0 1472 1037" fill="none" xmlns="http://www.w3.org/2000/svg">
    <rect width="1472" height="1037" fill="white"/>
    <path d="M297 52V664C297 666.761 294.761 669 292 669H52C45.9249 669 41 673.925 41 680V935.022C41 941.097 45.9249 946.022 52 946.022H1420C1426.08 946.022 1431 941.097 1431 935.022V52C1431 45.9249 1426.08 41 1420 41H308C301.925 41 297 45.9249 297 52Z" stroke="black" stroke-opacity="0.2" stroke-width="6"/>
    <path id="1-48" d="M937.968 383.25L890.808 385.61L848.705 388.726C846.616 388.88 845 390.62 845 392.715V522C845 524.21 846.791 526 849 526H891H982C984.209 526 986 524.21 986 522V386.105C986 383.856 984.145 382.048 981.896 382.107L937.968 383.25Z" fill="#FBFBFB" stroke="#959595"/>
    <path id="1-70" d="M604 586H551C548.791 586 547 587.791 547 590V673C547 675.209 548.791 677 551 677H604C606.209 677 608 675.209 608 673V590C608 587.791 606.209 586 604 586Z" fill="#FBFBFB" stroke="#959595"/>
    <path id="1-40" d="M543 586H501C498.791 586 497 587.791 497 590V607C497 609.209 498.791 611 501 611H543C545.209 611 547 609.209 547 607V590C547 587.791 545.209 586 543 586Z" fill="#FBFBFB" stroke="#959595"/>
    <!--  TODO: START  -->
    <path id="1-39" d="M543 611H501C498.791 611 497 612.791 497 615V628C497 630.209 498.791 632 501 632H543C545.209 632 547 630.209 547 628V615C547 612.791 545.209 611 543 611Z" fill="#FBFBFB" stroke="#959595"/>
    <path id="1-38" d="M542.98 676.905C545.187 677.011 546.998 675.209 546.998 673V636C546.998 633.791 545.207 632 542.998 632H500.869C498.712 632 496.974 633.699 497.172 635.847C498.144 646.383 504.343 675.048 542.98 676.905Z" fill="#FBFBFB" stroke="#959595"/>
    <path id="1-69" d="M651.732 674.536C653.637 674.262 655 672.606 655 670.682V530C655 527.791 653.209 526 651 526H612C609.791 526 608 527.791 608 530V672.971C608 675.192 609.804 676.984 612.023 676.944C620.338 676.796 639.644 676.275 651.732 674.536Z" fill="#FBFBFB" stroke="#959595"/>
    <path id="1-68" d="M655.002 669.478C655.002 671.881 657.102 673.731 659.464 673.291C671.88 670.98 691.878 665.071 699.2 662.856C700.878 662.348 702.002 660.806 702.002 659.054V599C702.002 596.791 703.793 595 706.002 595H744.002C746.211 595 748.002 593.209 748.002 591V530C748.002 527.791 746.211 526 744.002 526H659C656.791 526 655 527.791 655 530L655.002 669.478Z" fill="#FBFBFB" stroke="#959595"/>
    <path id="1-67" d="M748 645.974C748 647.764 746.811 649.336 745.088 649.823L707.088 660.562C704.535 661.284 702 659.366 702 656.713V599C702 596.791 703.791 595 706 595H744C746.209 595 748 596.791 748 599V645.974Z" fill="#FBFBFB" stroke="#959595"/>
    <path id="1-42" d="M500.88 525.869C498.663 525.88 496.859 524.086 496.859 521.869V505.635C496.859 504.924 497.049 504.226 497.408 503.613L511.341 479.828C512.058 478.603 513.372 477.85 514.792 477.85H542.599C544.809 477.85 546.599 479.64 546.599 481.85V521.65C546.599 523.851 544.821 525.639 542.62 525.65L500.88 525.869Z" fill="#FBFBFB" stroke="#959595"/>
    <path id="1-43" d="M516.888 471.773C514.926 474.3 516.796 477.85 519.995 477.85H542.61C544.819 477.85 546.61 476.059 546.61 473.85V451.939C546.61 448.914 543.454 447.1 540.97 448.827C535.149 452.874 525.701 460.417 516.888 471.773Z" fill="#FBFBFB" stroke="#959595"/>
    <path id="1-44" d="M608 522C608 524.209 609.791 526 612 526H651C653.209 526 655 524.209 655 522V419.839C655 417.328 652.714 415.438 650.248 415.91L611.248 423.378C609.363 423.739 608 425.388 608 427.307V522Z" fill="#FBFBFB" stroke="#959595"/>
    <path id="1-45" d="M703.048 406.51L658.304 414.416C656.393 414.754 655 416.415 655 418.355V522C655 524.209 656.791 526 659 526H744C746.209 526 748 524.209 748 522V403.724C748 401.251 745.779 399.371 743.341 399.778L703.048 406.51Z" fill="#FBFBFB" stroke="#959595"/>
    <path id="1-66" d="M792.766 641.599C794.653 641.259 796 639.615 796 637.697V530C796 527.791 794.209 526 792 526H752C749.791 526 748 527.791 748 530V644.314C748 646.774 750.197 648.65 752.626 648.261C761.813 646.789 782.367 643.47 792.766 641.599Z" fill="#FBFBFB" stroke="#959595"/>
    <path id="1-64" d="M909.535 641.499C911.912 641.758 914 639.903 914 637.512V530C914 527.791 912.209 526 910 526L800 526.001C797.791 526.001 796 527.792 796 530.001V561C796 563.209 797.791 565 800 565H841C843.209 565 845 566.791 845 569V633.91C845 636.195 846.897 638.034 849.183 638.005C857.579 637.897 878.387 638.1 909.535 641.499Z" fill="#FBFBFB" stroke="#959595"/>
    <path id="1-65" d="M800.709 640.27C798.243 640.605 796 638.717 796 636.229V569C796 566.791 797.791 565 800 565H841C843.209 565 845 566.791 845 569V633.957C845 636.183 843.19 637.986 840.964 637.996C833.015 638.034 814.876 638.344 800.709 640.27Z" fill="#FBFBFB" stroke="#959595"/>
    <path id="1-50" d="M1042 382C1044.21 382 1046 383.791 1046 386V522C1046 524.209 1044.21 526 1042 526H990C987.791 526 986 524.209 986 522V386C986 383.791 987.791 382 990 382H1042Z" fill="#FBFBFB" stroke="#959595"/>
    <path id="1-63" d="M914 638.808C914 640.777 915.434 642.454 917.379 642.759L933.379 645.274C935.806 645.655 938 643.779 938 641.322V575C938 572.791 936.209 571 934 571H918C915.791 571 914 572.791 914 575V638.808Z" fill="#FBFBFB" stroke="#959595"/>
    <path id="1-52" d="M1100.48 420.927C1097.66 419.386 1094 421.366 1094 424.582V473C1094 475.209 1095.79 477 1098 477H1137C1139.21 477 1141 475.209 1141 473V439.997C1141 438.221 1139.84 436.657 1138.14 436.125C1131.31 433.979 1113.63 428.105 1100.48 420.927Z" fill="#FBFBFB" stroke="#959595"/>
    <path id="1-51" d="M1052.36 386.635C1049.71 384.708 1046 386.596 1046 389.867V567C1046 569.209 1047.79 571 1050 571H1137C1139.21 571 1141 569.209 1141 567V481C1141 478.791 1139.21 477 1137 477H1098C1095.79 477 1094 475.209 1094 473V419.034C1094 417.756 1093.39 416.555 1092.36 415.802L1052.36 386.635Z" fill="#FBFBFB" stroke="#959595"/>
    <path id="1-53" d="M1188 444.1V520C1188 522.209 1186.21 524 1184 524H1145C1142.79 524 1141 522.209 1141 520V442.181C1141 439.56 1143.47 437.63 1146.02 438.225C1155.04 440.325 1174.29 444.365 1188 444.09" fill="#FBFBFB" stroke="#959595"/>
    <path id="1-56" d="M1145 571C1142.79 571 1141 569.209 1141 567V528C1141 525.791 1142.79 524 1145 524H1234C1236.21 524 1238 525.791 1238 528V567C1238 569.209 1236.21 571 1234 571H1145Z" fill="#FBFBFB" stroke="#959595"/>
    <path id="1-54" d="M1192.21 444.227C1189.92 444.104 1188 445.927 1188 448.221V520C1188 522.209 1189.79 524 1192 524H1234C1236.21 524 1238 522.212 1238 520.003C1238 511.435 1238 500.163 1238 489C1238.15 475.357 1238.41 462.051 1230.53 454.582C1223.1 447.517 1216.73 445.798 1215.46 445.513C1215.31 445.478 1215.16 445.462 1215 445.453L1192.21 444.227Z" fill="#FBFBFB" stroke="#959595"/>
    <path id="1-57" d="M1234 571C1236.21 571 1238 572.791 1238 575V629C1238 631.209 1236.21 633 1234 633H1168C1165.79 633 1164 631.209 1164 629V575C1164 572.791 1165.79 571 1168 571H1234Z" fill="#FBFBFB" stroke="#959595"/>
    <path id="1-55" d="M1234 489H1192C1189.79 489 1188 490.791 1188 493V520C1188 522.209 1189.79 524 1192 524H1234C1236.21 524 1238 522.209 1238 520V493C1238 490.791 1236.21 489 1234 489Z" fill="#FBFBFB" stroke="#959595"/>
    <path id="1-61" d="M1050 571C1047.79 571 1046 572.791 1046 575L1046 677.013C1046 678.785 1047.17 680.345 1048.87 680.848L1074.94 688.569C1086.25 692.495 1098.34 695.617 1109.97 698.672C1112.51 699.339 1115 697.424 1115 694.797V637C1115 634.791 1116.79 633 1119 633H1160C1162.21 633 1164 631.209 1164 629V575C1164 572.791 1162.21 571 1160 571H1050Z" fill="#FBFBFB" stroke="#959595"/>
    <path id="1-60" d="M1115 696.626C1115 698.585 1116.39 700.26 1118.31 700.645C1126.88 702.361 1149.33 706.978 1159.21 709.013C1161.69 709.524 1164 707.625 1164 705.091V637C1164 634.791 1162.21 633 1160 633H1119C1116.79 633 1115 634.774 1115 636.983C1115 651.737 1115 684.97 1115 696.626Z" fill="#FBFBFB" stroke="#959595"/>
    <path id="1-58" d="M1234 633.001L1168 633C1165.79 633 1164 634.791 1164 637V667C1164 669.209 1165.79 671 1168 671H1234C1236.21 671 1238 669.209 1238 667V637.001C1238 634.792 1236.21 633.001 1234 633.001Z" fill="#FBFBFB" stroke="#959595"/>
    <path id="1-47" d="M800.738 429.46C798.529 429.46 796.738 427.669 796.738 425.46V396.28C796.738 394.183 798.358 392.442 800.449 392.291L892.009 385.66C894.326 385.492 896.298 387.327 896.298 389.65V425.46C896.298 427.669 894.507 429.46 892.298 429.46H800.738Z" fill="#FBFBFB" stroke="#959595"/>
    <path id="1-41" d="M546.825 445.384V521.724C546.825 523.934 545.034 525.724 542.825 525.724H501C498.791 525.724 497 527.515 497 529.724V582C497 584.209 498.791 586 501 586H604C606.209 586 608 584.209 608 582V429.054C608 426.473 605.592 424.568 603.094 425.215C574.078 432.724 546.835 445.384 546.835 445.384" fill="#FBFBFB" stroke="#959595"/>
    <path id="1-49" d="M986.273 425.435C986.287 427.654 984.492 429.46 982.274 429.46H941.969C939.76 429.46 937.969 427.669 937.969 425.46V387.147C937.969 384.979 939.697 383.205 941.865 383.148L981.922 382.106C984.161 382.048 986.012 383.84 986.026 386.08L986.273 425.435Z" fill="#FBFBFB" stroke="#959595"/>
    <path id="1-70" d="M302 865H54C51.7909 865 50 866.791 50 869V933C50 935.209 51.7909 937 54 937H302C304.209 937 306 935.209 306 933V869C306 866.791 304.209 865 302 865Z" fill="#FBFBFB" stroke="#959595"/>
    <path id="1-3" d="M306 933V868.469C306 866.479 307.467 864.792 309.436 864.5C326.861 861.922 339.432 859.424 353.77 858.29C356.063 858.109 358 859.939 358 862.239V933C358 935.209 356.209 937 354 937H310C307.791 937 306 935.209 306 933Z" fill="#FBFBFB" stroke="#959595"/>
    <path id="1-4" d="M306 868.431C306 866.457 307.433 864.779 309.384 864.479C313.827 863.795 321.725 862.579 327.398 861.707C329.82 861.335 332 863.209 332 865.66V901C332 903.209 330.209 905 328 905H310C307.791 905 306 903.209 306 901V868.431Z" fill="#FBFBFB" stroke="#959595"/>
    <path id="1-11" d="M574.99 50C574.996 50 575 50.0045 575 50.01V384.653C575 386.59 573.616 388.268 571.743 388.762C564.202 390.753 544.466 397.224 522.105 414.69C506.368 426.99 494.589 439.571 490.047 444.656C488.824 446.025 486.842 446.438 485.192 445.636L453.506 430.246C453.17 430.083 452.859 429.873 452.581 429.624L307.327 299.192C306.483 298.433 306 297.351 306 296.216V54C306 51.7909 307.791 50 310 50H574.99Z" fill="#FBFBFB" stroke="#959595"/>
    <path id="1-8" d="M451 678H406C403.791 678 402 679.791 402 682V703C402 705.209 403.791 707 406 707H451C453.209 707 455 705.209 455 703V682C455 679.791 453.209 678 451 678Z" fill="#FBFBFB" stroke="#959595"/>
    <path id="1-5" d="M354.811 816.997C356.192 816.447 357 815.069 357 813.582V777C357 774.791 355.209 773 353 773H310C307.791 773 306 774.791 306 777V818.107C306 820.274 307.711 822.04 309.878 822.049C319.209 822.088 343.014 821.697 354.811 816.997Z" fill="#FBFBFB" stroke="#959595"/>
    <path id="1-6" d="M417.424 780.117C420.523 777.857 418.92 773 415.084 773H361C358.791 773 357 774.791 357 777V810.765C357 813.402 359.462 815.194 361.889 814.164C369.769 810.818 387.5 801.938 417.424 780.117Z" fill="#FBFBFB" stroke="#959595"/>
    <path id="1-2" d="M401.961 858.039C404.185 858.018 406 859.815 406 862.039V933C406 935.209 404.209 937 402 937H362C359.791 937 358 935.209 358 933V862.426C358 860.232 359.767 858.447 361.961 858.426L401.961 858.039Z" fill="#FBFBFB" stroke="#959595"/>
    <path id="1-1" d="M455.039 876.906C455.675 877.599 456 878.516 456 879.457V933C456 935.209 454.209 937 452 937H410C407.791 937 406 935.209 406 933V862.258C406 859.951 407.935 858.142 410.225 858.426C419.738 859.606 442.949 863.75 455.039 876.906Z" fill="#FBFBFB" stroke="#959595"/>
    <path id="1-29" d="M1090.88 733.916C1092.2 734.563 1093 735.916 1093 737.385V855C1093 857.209 1091.21 859 1089 859H1051C1048.79 859 1047 857.209 1047 855V721.777C1047 718.983 1049.78 717.049 1052.39 718.049C1061.93 721.708 1081.68 729.401 1090.88 733.916Z" fill="#FBFBFB" stroke="#959595"/>
    <path id="1-26" d="M1234 893H1191C1188.79 893 1187 894.791 1187 897V933C1187 935.209 1188.79 937 1191 937H1234C1236.21 937 1238 935.209 1238 933V897C1238 894.791 1236.21 893 1234 893Z" fill="#FBFBFB" stroke="#959595"/>
    <path id="1-27" d="M1205.33 831.728C1204.04 830.135 1201.75 829.919 1200.1 831.128L1188.64 839.525C1187.61 840.278 1187 841.476 1187 842.751V888.999C1187 891.208 1188.79 892.999 1191 892.999H1232.07C1234.9 892.999 1236.83 890.153 1235.71 887.547C1230.58 875.605 1217.65 846.985 1205.33 831.728Z" fill="#FBFBFB" stroke="#959595"/>
    <path id="1-33" d="M602.989 716.608C605.481 715.72 608 717.62 608 720.266V771C608 773.209 606.209 775 604 775H565C562.791 775 561 773.209 561 771V739.311C561 737.881 561.762 736.561 563.01 735.861C569.235 732.367 588.64 721.726 602.989 716.608Z" fill="#FBFBFB" stroke="#959595"/>
    <path id="1-34" d="M561 747.429C561 743.762 556.478 742.028 554.026 744.754L537.38 763.26C530.66 770.81 524.74 779.05 519.73 787.82L517.484 792.191C516.119 794.849 518.043 798.011 521.03 798.019L603.988 798.266C606.202 798.273 608 796.48 608 794.266V779.001C608 776.792 606.209 775.001 604 775.001H565C562.791 775.001 561 773.21 561 771.001V747.429Z" fill="#FBFBFB" stroke="#959595"/>
    <path id="1-12" d="M745.99 50C748.199 50 749.99 51.7908 749.99 53.9999L750 354.524C750 356.517 748.551 358.204 746.577 358.486C734.194 360.251 691.182 366.451 667.022 370.812C644.233 374.925 611.729 380.913 599.706 383.131C597.247 383.585 595 381.693 595 379.193V100.918C595 98.709 596.791 96.9181 599 96.9181H659.815C662.011 96.9181 663.796 95.1479 663.815 92.9521L664.147 53.966C664.165 51.7702 665.951 50 668.146 50L745.99 50Z" fill="#FBFBFB" stroke="#959595"/>
    <path id="1-13" d="M840.278 348.129C842.37 347.972 844 346.231 844 344.133V54C844 51.7909 842.209 50 840 50H754C751.791 50 750 51.7909 750 54V353.318C750 355.776 752.172 357.664 754.605 357.311C766.152 355.635 798.432 351.254 840.278 348.129Z" fill="#FBFBFB" stroke="#959595"/>
    <path id="1-16" d="M1147.3 348.195C1149.75 348.601 1152 346.718 1152 344.23V101C1152 98.7909 1150.21 97 1148 97H1053C1050.79 97 1049 98.7909 1049 101V336.022C1049 338.223 1050.76 340.015 1052.96 340.058C1065.75 340.307 1107.46 341.602 1147.3 348.195Z" fill="#FBFBFB" stroke="#959595"/>
    <path id="1-18" d="M1345.08 538.99C1347.29 538.99 1349.08 537.199 1349.08 534.99V513C1349.08 510.791 1350.87 509 1353.08 509H1418C1420.21 509 1422 507.209 1422 505V352C1422 349.791 1420.21 348 1418 348H1317.68C1316.6 348 1315.58 348.43 1314.82 349.194L1255.34 409.612C1253.59 411.381 1253.88 414.29 1255.81 415.852C1276.32 432.448 1276 454.607 1276 480V534.99C1276 537.199 1277.79 538.99 1280 538.99H1345.08Z" fill="#FBFBFB" stroke="#959595"/>
    <path id="1-20" d="M1345 551H1280C1277.79 551 1276 552.791 1276 555V581C1276 583.209 1277.79 585 1280 585H1345C1347.21 585 1349 583.209 1349 581V555C1349 552.791 1347.21 551 1345 551Z" fill="#FBFBFB" stroke="#959595"/>
    <path id="1-24" d="M1325 772H1280C1277.79 772 1276 773.791 1276 776V817C1276 819.209 1277.79 821 1280 821H1325C1327.21 821 1329 819.209 1329 817V776C1329 773.791 1327.21 772 1325 772Z" fill="#FBFBFB" stroke="#959595"/>
    <path id="1-19" d="M1374 551H1353C1350.79 551 1349 552.791 1349 555V581C1349 583.209 1350.79 585 1353 585H1374C1376.21 585 1378 583.209 1378 581V555C1378 552.791 1376.21 551 1374 551Z" fill="#FBFBFB" stroke="#959595"/>
    <path id="1-59" d="M1167.99 671H1234.02C1236.23 671 1238.18 672.798 1238 675C1238 705.597 1192.16 713.661 1167.28 710.504C1165.37 710.261 1164 708.596 1164 706.664V675C1164 672.791 1165.78 671 1167.99 671Z" fill="#FBFBFB" stroke="#959595"/>
    <path id="1-71" d="M306 781.91V818C306 820.209 304.209 822 302 822H54C51.7909 822 50 820.209 50 818V682C50 679.791 51.7909 678 54 678H302C304.209 678 306 679.791 306 682V757.398" fill="#FBFBFB" stroke="#959595"/>
    <path id="1-7" d="M306 773C306 772.994 306.005 772.99 306.01 772.99H425.083C426.295 772.99 427.444 772.44 428.198 771.491C443.095 752.747 453.841 735.12 454.912 711.004C455.01 708.797 453.209 707 451 707H406C403.791 707 402 705.209 402 703V682C402 679.791 400.209 678 398 678H310C307.791 678 306 679.791 306 682V773Z" fill="#FBFBFB" stroke="#959595"/>
    <path id="1-9" d="M451 509H310C307.791 509 306 510.791 306 513V674C306 676.209 307.791 678 310 678H451C453.209 678 455 676.209 455 674V513C455 510.791 453.209 509 451 509Z" fill="#FBFBFB" stroke="#959595"/>
    <path id="1-10" d="M455.521 506.017C455.015 507.767 453.43 509 451.609 509H310C307.791 509 306 507.209 306 505V306.968C306 303.507 310.097 301.679 312.673 303.992L452.581 429.624C452.859 429.873 453.17 430.083 453.506 430.246L483.28 444.707C485.655 445.861 486.319 448.973 484.691 451.052C477.978 459.623 462.781 480.883 455.521 506.017Z" fill="#FBFBFB" stroke="#959595"/>
    <path id="1-14" d="M956 50C958.209 50 960 51.7909 960 54V336.266C960 338.369 958.373 340.112 956.275 340.257L848.275 347.705C845.963 347.865 844 346.032 844 343.715V54C844 51.7909 845.791 50 848 50H956Z" fill="#FBFBFB" stroke="#959595"/>
    <path id="1-15" d="M1025 50C1027.21 50 1029 51.7909 1029 54V336C1029 338.209 1027.21 340 1025 340H964C961.791 340 960 338.209 960 336V54C960 51.7909 961.791 50 964 50H1025Z" fill="#FBFBFB" stroke="#959595"/>
    <path id="1-17" d="M1314.86 349.193L1254.67 410.288C1253.18 411.807 1250.75 411.883 1249.15 410.476C1221.21 385.944 1188.5 363.218 1154.59 349.99C1153.03 349.384 1152 347.895 1152 346.228V54C1152 51.7909 1153.79 50 1156 50H1418C1420.21 50 1422 51.7909 1422 54V344C1422 346.209 1420.21 348 1418 348H1317.71C1316.64 348 1315.61 348.43 1314.86 349.193Z" fill="#FBFBFB" stroke="#959595"/>
    <path id="1-21" d="M1418 585H1280C1277.79 585 1276 586.791 1276 589V629C1276 631.209 1277.79 633 1280 633H1418C1420.21 633 1422 631.209 1422 629V589C1422 586.791 1420.21 585 1418 585Z" fill="#FBFBFB" stroke="#959595"/>
    <path id="1-22" d="M1349 633L1280 633C1277.79 633 1276 634.791 1276 637V673C1276 675.209 1277.79 677 1280 677H1349H1418C1420.21 677 1422 675.209 1422 673V637C1422 634.791 1420.21 633 1418 633L1349 633Z" fill="#FBFBFB" stroke="#959595"/>
    <path id="1-23" d="M1330.46 677H1280C1277.79 677 1276 678.791 1276 681V718.086V768C1276 770.209 1277.79 772 1280 772H1418C1420.21 772 1422 770.209 1422 768V681C1422 678.791 1420.21 677 1418 677H1330.46Z" fill="#FBFBFB" stroke="#959595"/>
    <path id="1-25" d="M1418 772C1420.21 772 1422 773.791 1422 776V933C1422 935.209 1420.21 937 1418 937H1280C1277.79 937 1276 935.209 1276 933V825C1276 822.791 1277.79 821 1280 821H1325C1327.21 821 1329 819.209 1329 817V776C1329 773.791 1330.79 772 1333 772H1418Z" fill="#FBFBFB" stroke="#959595"/>
    <path id="1-28" d="M1200.53 825.76C1201.89 827.525 1201.52 830.078 1199.72 831.394L1188.59 839.521C1187.56 840.274 1186.95 841.474 1186.95 842.751V933C1186.95 935.209 1185.16 937 1182.95 937H1051C1048.79 937 1047 935.209 1047 933V863C1047 860.791 1048.79 859 1051 859H1089C1091.21 859 1093 857.209 1093 855V741.299C1093 738.368 1096 736.48 1098.58 737.874C1114.34 746.403 1160.69 774.243 1200.53 825.76Z" fill="#FBFBFB" stroke="#959595"/>
    <path id="1-46" d="M792.214 393.158C794.611 392.842 796.738 394.707 796.738 397.124V425.461C796.738 427.67 798.529 429.461 800.738 429.461H841C843.209 429.461 845 431.251 845 433.461V522C845 524.209 843.209 526 841 526H752C749.791 526 748 524.209 748 522V402.506C748 400.5 749.487 398.804 751.476 398.541L792.214 393.158Z" fill="#FBFBFB" stroke="#959595"/>
    <path id="1-62" d="M1042 526C1044.21 526 1046 527.791 1046 530V673.867C1046 676.756 1043.05 678.71 1040.39 677.573C1025.85 671.347 986.78 655.051 968.299 651.59C953.677 648.85 945.388 647.332 941.297 646.592C939.387 646.246 937.999 644.584 937.998 642.643L937.961 574.998C937.96 572.79 936.169 571 933.961 571H918C915.791 571 914 569.209 914 567V530C914 527.791 915.791 526 918 526H1042Z" fill="#FBFBFB" stroke="#959595"/>
    <path id="1-35" d="M604.013 798.266C606.217 798.272 608.001 800.061 608.001 802.266V834C608.001 836.209 606.21 838 604.001 838H506.223C503.59 838 501.68 835.512 502.402 832.98C504.703 824.919 509.425 809.092 513.458 800.202" fill="#FBFBFB" stroke="#959595"/>
    <path id="1-36" d="M500.287 840.994C500.667 839.22 502.263 838 504.078 838H604C606.209 838 608 839.791 608 842V876C608 878.209 606.209 880 604 880H501.015C498.81 880 497.028 878.23 497.069 876.026C497.206 868.67 497.793 852.622 500.287 840.994Z" fill="#FBFBFB" stroke="#959595"/>
    <path id="1-37" d="M501.125 880C498.922 880 497.133 881.781 497.125 883.984L497 915.329V933C497 935.209 498.791 937 501 937H546.447H604C606.209 937 608 935.209 608 933V884C608 881.791 606.209 880 604 880H501.125Z" fill="#FBFBFB" stroke="#959595"/>
    <path id="1-32" d="M612 715C609.791 715 608 716.791 608 719V933C608 935.209 609.791 937 612 937H698C700.209 937 702 935.209 702 933V719C702 716.791 700.209 715 698 715H612Z" fill="#FBFBFB" stroke="#959595"/>
    <path id="1-31" d="M702 719C702 716.791 703.791 715 706 715H839C841.209 715 843 716.791 843 719V779.201V933C843 935.209 841.209 937 839 937H706C703.791 937 702 935.209 702 933V719Z" fill="#FBFBFB" stroke="#959595"/>
    <path id="1-30" d="M843 933C843 935.209 844.791 937 847 937H1043C1045.21 937 1047 935.209 1047 933V719.914C1047 717.714 1045.22 715.927 1043.02 715.914L892.115 715H847C844.791 715 843 716.791 843 719V779.201V933Z" fill="#FBFBFB" stroke="#959595"/>
    <rect x="456" y="937" width="41" height="30" fill="white"/>
    <rect x="1238" y="937" width="38" height="30" fill="white"/>
    <rect x="157" y="937" width="41" height="30" fill="white"/>
    <path d="M884 994C884.552 994 885 993.552 885 993C885 992.448 884.552 992 884 992C883.448 992 883 992.448 883 993C883 993.552 883.448 994 884 994ZM893 993C893 993.552 892.552 994 892 994C891.448 994 891 993.552 891 993C891 992.448 891.448 992 892 992C892.552 992 893 992.448 893 993ZM886.75 983C886.336 983 886 983.336 886 983.75C886 984.164 886.336 984.5 886.75 984.5H889.25C889.664 984.5 890 984.164 890 983.75C890 983.336 889.664 983 889.25 983H886.75ZM883.75 980C881.679 980 880 981.679 880 983.75V987.5H878.75C878.336 987.5 878 987.836 878 988.25C878 988.664 878.336 989 878.75 989H880V997.75C880 998.716 880.784 999.5 881.75 999.5H883.25C884.217 999.5 885 998.716 885 997.75V996.5H891V997.75C891 998.716 891.784 999.5 892.75 999.5H894.25C895.217 999.5 896 998.716 896 997.75V989H897.227C897.642 989 897.977 988.664 897.977 988.25C897.977 987.836 897.642 987.5 897.227 987.5H896V983.75C896 981.679 894.321 980 892.25 980H883.75ZM894.5 996.5V997.75C894.5 997.888 894.388 998 894.25 998H892.75C892.612 998 892.5 997.888 892.5 997.75V996.5H894.5ZM894.5 995H881.5V991H894.5V995ZM881.5 997.75V996.5H883.5V997.75C883.5 997.888 883.388 998 883.25 998H881.75C881.612 998 881.5 997.888 881.5 997.75ZM881.5 983.75C881.5 982.507 882.508 981.5 883.75 981.5H892.25C893.493 981.5 894.5 982.507 894.5 983.75V989.5H881.5V983.75Z" fill="#3383A4"/>
    <path d="M847.799 981C849.29 981 850.589 982.014 850.952 983.46L851.337 985H852.25C852.63 985 852.944 985.282 852.993 985.648L853 985.75C853 986.13 852.718 986.443 852.352 986.493L852.25 986.5H851.714L851.922 987.326C852.571 987.721 853.004 988.435 853.004 989.25V997.747C853.004 998.713 852.221 999.497 851.254 999.497H849.75C848.783 999.497 848 998.713 848 997.747L847.999 996.5H840.004L840.004 997.747C840.004 998.713 839.221 999.497 838.254 999.497H836.75C835.784 999.497 835 998.713 835 997.747V989.25C835 988.435 835.433 987.721 836.082 987.327L836.289 986.5H835.75C835.37 986.5 835.057 986.218 835.007 985.852L835 985.75C835 985.37 835.282 985.057 835.648 985.007L835.75 985H836.663L837.049 983.462C837.411 982.015 838.711 981 840.202 981H847.799ZM838.504 996.5H836.499L836.5 997.747C836.5 997.885 836.612 997.997 836.75 997.997H838.254C838.392 997.997 838.504 997.885 838.504 997.747L838.504 996.5ZM851.504 996.5H849.499L849.5 997.747C849.5 997.885 849.612 997.997 849.75 997.997H851.254C851.392 997.997 851.504 997.885 851.504 997.747L851.504 996.5ZM850.754 988.5H837.25C836.836 988.5 836.5 988.836 836.5 989.25V995H851.504V989.25C851.504 988.836 851.168 988.5 850.754 988.5ZM842.249 992H845.751C846.165 992 846.501 992.336 846.501 992.75C846.501 993.13 846.219 993.444 845.852 993.493L845.751 993.5H842.249C841.835 993.5 841.499 993.164 841.499 992.75C841.499 992.37 841.781 992.056 842.147 992.007L842.249 992ZM849 990C849.552 990 850 990.448 850 991C850 991.552 849.552 992 849 992C848.448 992 848 991.552 848 991C848 990.448 848.448 990 849 990ZM839 990C839.552 990 840 990.448 840 991C840 991.552 839.552 992 839 992C838.448 992 838 991.552 838 991C838 990.448 838.448 990 839 990ZM847.799 982.5H840.202C839.399 982.5 838.699 983.047 838.504 983.826L837.711 987H850.293L849.497 983.824C849.302 983.046 848.602 982.5 847.799 982.5Z" fill="#3383A4"/>
    <path d="M605.751 63L605.649 63.0068C605.283 63.0565 605.001 63.3703 605.001 63.75L605 76.442L601.78 73.2244L601.696 73.1518C601.402 72.9341 600.986 72.9585 600.719 73.2248C600.427 73.5179 600.427 73.9927 600.72 74.2855L605.224 78.7855L605.308 78.8581C605.601 79.0758 606.018 79.0514 606.284 78.7851L610.781 74.2851L610.853 74.2009C611.071 73.9072 611.046 73.4905 610.78 73.2244L610.696 73.1518C610.402 72.9341 609.986 72.9585 609.719 73.2248L606.5 76.446L606.501 63.75L606.494 63.6482C606.444 63.2822 606.131 63 605.751 63Z" fill="#3383A4"/>
    <path d="M614.249 79.0059L614.351 78.999C614.717 78.9493 614.999 78.6356 614.999 78.2559L615 65.5639L618.22 68.7815L618.304 68.8541C618.598 69.0718 619.014 69.0474 619.281 68.7811C619.573 68.488 619.573 68.0132 619.28 67.7204L614.776 63.2204L614.692 63.1478C614.399 62.9301 613.982 62.9545 613.716 63.2208L609.219 67.7208L609.147 67.805C608.929 68.0987 608.954 68.5154 609.22 68.7815L609.304 68.8541C609.598 69.0718 610.014 69.0474 610.281 68.7811L613.5 65.5599L613.499 78.2559L613.506 78.3576C613.556 78.7237 613.869 79.0059 614.249 79.0059Z" fill="#3383A4"/>
    <path d="M621 61H599V81H621V61Z" stroke="#3383A4" stroke-width="1.3" stroke-linejoin="round"/>
    <path d="M1398.75 522L1398.65 522.007C1398.28 522.057 1398 522.37 1398 522.75L1398 535.442L1394.78 532.224L1394.7 532.152C1394.4 531.934 1393.99 531.958 1393.72 532.225C1393.43 532.518 1393.43 532.993 1393.72 533.285L1398.22 537.785L1398.31 537.858C1398.6 538.076 1399.02 538.051 1399.28 537.785L1403.78 533.285L1403.85 533.201C1404.07 532.907 1404.05 532.49 1403.78 532.224L1403.7 532.152C1403.4 531.934 1402.99 531.958 1402.72 532.225L1399.5 535.446L1399.5 522.75L1399.49 522.648C1399.44 522.282 1399.13 522 1398.75 522Z" fill="#3383A4"/>
    <path d="M1407.25 538.006L1407.35 537.999C1407.72 537.949 1408 537.636 1408 537.256L1408 524.564L1411.22 527.781L1411.3 527.854C1411.6 528.072 1412.01 528.047 1412.28 527.781C1412.57 527.488 1412.57 527.013 1412.28 526.72L1407.78 522.22L1407.69 522.148C1407.4 521.93 1406.98 521.954 1406.72 522.221L1402.22 526.721L1402.15 526.805C1401.93 527.099 1401.95 527.515 1402.22 527.781L1402.3 527.854C1402.6 528.072 1403.01 528.047 1403.28 527.781L1406.5 524.56L1406.5 537.256L1406.51 537.358C1406.56 537.724 1406.87 538.006 1407.25 538.006Z" fill="#3383A4"/>
    <path d="M1414 520H1392V540H1414V520Z" stroke="#3383A4" stroke-width="1.3" stroke-linejoin="round"/>
    <path d="M425.5 990C425.5 985.306 429.306 981.5 434 981.5C438.694 981.5 442.5 985.306 442.5 990C442.5 994.694 438.694 998.5 434 998.5C429.306 998.5 425.5 994.694 425.5 990ZM434 980C428.477 980 424 984.477 424 990C424 995.523 428.477 1000 434 1000C439.523 1000 444 995.523 444 990C444 984.477 439.523 980 434 980Z" fill="black"/>
    <path d="M430.297 996V984.64H435.065C435.577 984.64 436.046 984.746 436.473 984.96C436.9 985.173 437.273 985.456 437.593 985.808C437.913 986.16 438.158 986.554 438.329 986.992C438.5 987.429 438.585 987.877 438.585 988.336C438.585 988.965 438.441 989.568 438.153 990.144C437.876 990.709 437.476 991.168 436.953 991.52C436.441 991.872 435.844 992.048 435.161 992.048H432.089V996H430.297ZM432.089 990.464H435.049C435.39 990.464 435.689 990.373 435.945 990.192C436.201 990 436.398 989.744 436.537 989.424C436.686 989.104 436.761 988.741 436.761 988.336C436.761 987.92 436.676 987.552 436.505 987.232C436.334 986.912 436.11 986.666 435.833 986.496C435.566 986.314 435.273 986.224 434.953 986.224H432.089V990.464Z" fill="black"/>
    <path d="M1204.5 990C1204.5 985.306 1208.31 981.5 1213 981.5C1217.69 981.5 1221.5 985.306 1221.5 990C1221.5 994.694 1217.69 998.5 1213 998.5C1208.31 998.5 1204.5 994.694 1204.5 990ZM1213 980C1207.48 980 1203 984.477 1203 990C1203 995.523 1207.48 1000 1213 1000C1218.52 1000 1223 995.523 1223 990C1223 984.477 1218.52 980 1213 980Z" fill="black"/>
    <path d="M1209.3 996V984.64H1214.06C1214.58 984.64 1215.05 984.746 1215.47 984.96C1215.9 985.173 1216.27 985.456 1216.59 985.808C1216.91 986.16 1217.16 986.554 1217.33 986.992C1217.5 987.429 1217.58 987.877 1217.58 988.336C1217.58 988.965 1217.44 989.568 1217.15 990.144C1216.88 990.709 1216.48 991.168 1215.95 991.52C1215.44 991.872 1214.84 992.048 1214.16 992.048H1211.09V996H1209.3ZM1211.09 990.464H1214.05C1214.39 990.464 1214.69 990.373 1214.94 990.192C1215.2 990 1215.4 989.744 1215.54 989.424C1215.69 989.104 1215.76 988.741 1215.76 988.336C1215.76 987.92 1215.68 987.552 1215.5 987.232C1215.33 986.912 1215.11 986.666 1214.83 986.496C1214.57 986.314 1214.27 986.224 1213.95 986.224H1211.09V990.464Z" fill="black"/>
    <path d="M644 71.1304L654 74.8261V80H634V74.8261L644 71.1304ZM644 71.1304V68.1739H644.49C645.919 68.1739 647.077 67.0157 647.077 65.587V65.587C647.077 64.1582 645.919 63 644.49 63H643.91C642.685 63 641.692 63.9928 641.692 65.2174V65.2174" stroke="#3383A4" stroke-width="1.5" stroke-linecap="round" stroke-linejoin="round"/>
    <path d="M1057.91 68.3945L1059.88 71.3381C1059.94 71.4305 1059.98 71.5349 1059.99 71.6437L1060 71.7538V76.2498C1060 76.6295 1059.72 76.9433 1059.35 76.993L1059.25 76.9998H1058L1058 80.2534C1058 80.6676 1057.66 81.0034 1057.25 81.0034C1056.87 81.0034 1056.56 80.7212 1056.51 80.3551L1056.5 80.2534L1056.5 76.9998L1054.5 76.9988L1054.5 80.2564C1054.5 80.6706 1054.17 81.0064 1053.75 81.0064C1053.37 81.0064 1053.06 80.7242 1053.01 80.3582L1053 80.2564L1053 76.9988L1051.75 76.9998C1051.37 76.9998 1051.06 76.7176 1051.01 76.3516L1051 76.2498V71.7538C1051 71.6428 1051.03 71.5338 1051.08 71.4342L1051.13 71.3381L1053.11 68.3505C1053.86 68.3505 1054.66 68.8418 1054.43 69.0693C1054.43 69.1803 1054.48 68.9698 1054.43 69.0693L1054.38 69.1654L1052.5 71.9806V75.4998H1058.5V71.9806L1056.63 69.1654C1056.57 69.0731 1056.53 68.9686 1056.51 68.8598L1056.5 68.7498C1056.5 68.5233 1057.16 68.3943 1057.91 68.3945ZM1069.5 68H1070.25C1070.63 68 1070.95 68.2821 1070.99 68.6482L1071 68.75V74.2458C1071 74.3568 1070.98 74.4658 1070.93 74.5654L1070.88 74.6615L1069 77.4766V80.2498C1069 80.664 1068.67 80.9998 1068.25 80.9998C1067.87 80.9998 1067.56 80.7176 1067.51 80.3516L1067.5 80.2498V77.2498C1067.5 77.1389 1067.53 77.0298 1067.57 76.9302L1067.63 76.8342L1069.5 74.019V69.5H1063.5V74.019L1065.38 76.8342C1065.44 76.9265 1065.48 77.0309 1065.5 77.1398L1065.5 77.2498V80.2498C1065.5 80.664 1065.17 80.9998 1064.75 80.9998C1064.37 80.9998 1064.06 80.7176 1064.01 80.3516L1064 80.2498V77.4766L1062.13 74.6615C1062.07 74.5691 1062.03 74.4647 1062.01 74.3559L1062 74.2458V68.75C1062 68.3703 1062.29 68.0565 1062.65 68.0069L1062.75 68H1063.51C1066 68.0006 1067 68 1069.5 68Z" fill="#3383A4"/>
    <path d="M1057.25 68H1056.5C1054 68 1057 68.0006 1054.5 68H1053.75L1053.65 68.0069C1053.28 68.0565 1053 68.3703 1053 68.75V69.5H1054.5H1056.5H1058V68.75L1057.99 68.6482C1057.94 68.2821 1057.63 68 1057.25 68Z" fill="#3383A4"/>
    <path d="M1054 64C1054 63.1716 1054.67 62.5 1055.5 62.5C1056.33 62.5 1057 63.1716 1057 64C1057 64.8284 1056.33 65.5 1055.5 65.5C1054.67 65.5 1054 64.8284 1054 64ZM1055.5 61C1053.84 61 1052.5 62.3432 1052.5 64C1052.5 65.6569 1053.84 67 1055.5 67C1057.16 67 1058.5 65.6569 1058.5 64C1058.5 62.3432 1057.16 61 1055.5 61Z" fill="#3383A4"/>
    <path d="M1064.93 64C1064.93 63.1716 1065.6 62.5 1066.43 62.5C1067.26 62.5 1067.93 63.1716 1067.93 64C1067.93 64.8284 1067.26 65.5 1066.43 65.5C1065.6 65.5 1064.93 64.8284 1064.93 64ZM1066.43 61C1064.77 61 1063.43 62.3432 1063.43 64C1063.43 65.6569 1064.77 67 1066.43 67C1068.09 67 1069.43 65.6569 1069.43 64C1069.43 62.3432 1068.09 61 1066.43 61Z" fill="#3383A4"/>
    <path d="M1124.91 68.3946L1126.88 71.3382C1126.94 71.4306 1126.98 71.535 1126.99 71.6438L1127 71.7539V76.2499C1127 76.6296 1126.72 76.9434 1126.35 76.9931L1126.25 76.9999H1125L1125 80.2535C1125 80.6677 1124.66 81.0035 1124.25 81.0035C1123.87 81.0035 1123.56 80.7213 1123.51 80.3552L1123.5 80.2535L1123.5 76.9999L1121.5 76.9989L1121.5 80.2565C1121.5 80.6707 1121.17 81.0065 1120.75 81.0065C1120.37 81.0065 1120.06 80.7243 1120.01 80.3583L1120 80.2565L1120 76.9989L1118.75 76.9999C1118.37 76.9999 1118.06 76.7177 1118.01 76.3517L1118 76.2499V71.7539C1118 71.6429 1118.03 71.5339 1118.08 71.4343L1118.13 71.3382L1120.11 68.3506C1120.86 68.3506 1121.66 68.8419 1121.43 69.0694C1121.43 69.1804 1121.48 68.9699 1121.43 69.0694L1121.38 69.1655L1119.5 71.9807V75.4999H1125.5V71.9807L1123.63 69.1655C1123.57 69.0732 1123.53 68.9687 1123.51 68.8599L1123.5 68.7499C1123.5 68.5234 1124.16 68.3944 1124.91 68.3946Z" fill="#3383A4"/>
    <path d="M1124.25 68H1123.5C1121 68 1124 68.0006 1121.5 68H1120.75L1120.65 68.0069C1120.28 68.0565 1120 68.3703 1120 68.75V69.5H1121.5H1123.5H1125V68.75L1124.99 68.6482C1124.94 68.2821 1124.63 68 1124.25 68Z" fill="#3383A4"/>
    <path d="M1121 64C1121 63.1716 1121.67 62.5 1122.5 62.5C1123.33 62.5 1124 63.1716 1124 64C1124 64.8284 1123.33 65.5 1122.5 65.5C1121.67 65.5 1121 64.8284 1121 64ZM1122.5 61C1120.84 61 1119.5 62.3432 1119.5 64C1119.5 65.6569 1120.84 67 1122.5 67C1124.16 67 1125.5 65.6569 1125.5 64C1125.5 62.3432 1124.16 61 1122.5 61Z" fill="#3383A4"/>
    <path d="M1132 73L1131 73C1130.45 73 1130 73.4477 1130 74L1130 75C1130 75.5523 1130.45 76 1131 76L1137.98 76C1137.99 76 1138 75.9959 1138.01 75.9886V75.9886C1139.2 74.801 1139.49 72.9868 1138.74 71.4846L1138 70" stroke="#3383A4" stroke-width="1.5" stroke-linejoin="round"/>
    <rect x="1130" y="79" width="2" height="2" rx="1" fill="#3383A4"/>
    <rect x="1136" y="79" width="2" height="2" rx="1" fill="#3383A4"/>
    <circle cx="1134" cy="70" r="1.75" stroke="#3383A4" stroke-width="1.5"/>
    <path d="M1092.5 64C1092.5 63.1716 1093.17 62.5 1094 62.5C1094.83 62.5 1095.5 63.1716 1095.5 64C1095.5 64.8284 1094.83 65.5 1094 65.5C1093.17 65.5 1092.5 64.8284 1092.5 64ZM1094 61C1092.34 61 1091 62.3432 1091 64C1091 65.6569 1092.34 67 1094 67C1095.66 67 1097 65.6569 1097 64C1097 62.3432 1095.66 61 1094 61Z" fill="#3383A4"/>
    <path d="M1091 72.5V68H1093.5L1096 75H1100.5V81" stroke="#3383A4" stroke-width="1.5" stroke-linecap="round" stroke-linejoin="round"/>
    <circle cx="1092" cy="77" r="4.25" stroke="#3383A4" stroke-width="1.5"/>
    <path d="M1405.36 554.595C1405.44 554.483 1405.61 554.468 1405.72 554.563L1406.64 555.375L1403.74 559H1405.66L1407.76 556.368L1409.42 557.825C1409.52 557.915 1409.53 558.069 1409.44 558.173L1408.75 559H1410.7C1411.19 558.279 1411.08 557.289 1410.41 556.7L1406.71 553.437C1405.96 552.773 1404.8 552.878 1404.18 553.667L1399.98 559H1401.89L1405.36 554.595ZM1407.25 566C1406.84 566 1406.5 566.336 1406.5 566.75C1406.5 567.164 1406.84 567.5 1407.25 567.5H1409.25C1409.66 567.5 1410 567.164 1410 566.75C1410 566.336 1409.66 566 1409.25 566H1407.25ZM1395.5 559.25C1395.5 558.836 1395.84 558.5 1396.25 558.5H1399.38L1400.57 557H1396.25C1395.01 557 1394 558.007 1394 559.25V569.75C1394 571.545 1395.46 573 1397.25 573H1409.25C1411.04 573 1412.5 571.545 1412.5 569.75V563.25C1412.5 561.455 1411.04 560 1409.25 560H1396.25C1395.84 560 1395.5 559.664 1395.5 559.25ZM1395.5 569.75V561.372C1395.73 561.455 1395.99 561.5 1396.25 561.5H1409.25C1410.22 561.5 1411 562.283 1411 563.25V569.75C1411 570.716 1410.22 571.5 1409.25 571.5H1397.25C1396.28 571.5 1395.5 570.716 1395.5 569.75Z" fill="#3383A4"/>
    <path d="M676.5 382C676.5 381.172 677.172 380.5 678 380.5C678.828 380.5 679.5 381.172 679.5 382C679.5 382.828 678.828 383.5 678 383.5C677.172 383.5 676.5 382.828 676.5 382ZM678 379C676.343 379 675 380.343 675 382C675 383.657 676.343 385 678 385C679.657 385 681 383.657 681 382C681 380.343 679.657 379 678 379Z" fill="#3383A4"/>
    <path d="M672.25 392C672.25 392.414 672.586 392.75 673 392.75C673.414 392.75 673.75 392.414 673.75 392H672.25ZM673 390L672.502 389.439C672.342 389.582 672.25 389.786 672.25 390H673ZM677.5 386H678.25C678.25 385.705 678.077 385.437 677.807 385.316C677.538 385.195 677.222 385.243 677.002 385.439L677.5 386ZM676.75 390.5V391.25H678.25V390.5H676.75ZM673.75 392V390H672.25V392H673.75ZM673.498 390.561L677.998 386.561L677.002 385.439L672.502 389.439L673.498 390.561ZM676.75 386V390.5H678.25V386H676.75Z" fill="#3383A4"/>
    <path d="M682.5 386H689V391H684.5L676.5 399H669V394H674.5L682.5 386Z" stroke="#3383A4" stroke-width="1.5" stroke-linecap="round" stroke-linejoin="round"/>
    <path d="M1138.5 382C1138.5 381.172 1139.17 380.5 1140 380.5C1140.83 380.5 1141.5 381.172 1141.5 382C1141.5 382.828 1140.83 383.5 1140 383.5C1139.17 383.5 1138.5 382.828 1138.5 382ZM1140 379C1138.34 379 1137 380.343 1137 382C1137 383.657 1138.34 385 1140 385C1141.66 385 1143 383.657 1143 382C1143 380.343 1141.66 379 1140 379Z" fill="#3383A4"/>
    <path d="M1134.25 392C1134.25 392.414 1134.59 392.75 1135 392.75C1135.41 392.75 1135.75 392.414 1135.75 392H1134.25ZM1135 390L1134.5 389.439C1134.34 389.582 1134.25 389.786 1134.25 390H1135ZM1139.5 386H1140.25C1140.25 385.705 1140.08 385.437 1139.81 385.316C1139.54 385.195 1139.22 385.243 1139 385.439L1139.5 386ZM1138.75 390.5V391.25H1140.25V390.5H1138.75ZM1135.75 392V390H1134.25V392H1135.75ZM1135.5 390.561L1140 386.561L1139 385.439L1134.5 389.439L1135.5 390.561ZM1138.75 386V390.5H1140.25V386H1138.75Z" fill="#3383A4"/>
    <path d="M1144.5 386H1151V391H1146.5L1138.5 399H1131V394H1136.5L1144.5 386Z" stroke="#3383A4" stroke-width="1.5" stroke-linecap="round" stroke-linejoin="round"/>
    <path d="M812 993L815 993V987L812 987V993ZM582 987C580.343 987 579 988.343 579 990C579 991.657 580.343 993 582 993V987ZM812 987H582V993H812V987Z" fill="#3383A4"/>
    <path d="M1150 993C1151.66 993 1153 991.657 1153 990C1153 988.343 1151.66 987 1150 987V993ZM920 987H917V993H920V987ZM1150 987H920V993H1150V987Z" fill="#3383A4"/>
</svg>
