<svg width="1168" height="625" viewBox="0 0 1168 625" fill="none" xmlns="http://www.w3.org/2000/svg">
    <rect width="1168" height="625" fill="white"/>
    <circle cx="955" cy="188" r="24.25" stroke="#F5BA46" stroke-width="1.5"/>
    <path id="2-2" d="M330 50C327.791 50 326 51.7909 326 54V94C326 96.2091 324.209 98 322 98H296C293.791 98 292 99.7909 292 102V295C292 297.209 293.791 299 296 299H409C411.209 299 413 300.791 413 303V346.161C413 348.553 415.085 350.41 417.46 350.135L557.46 333.91C559.478 333.676 561 331.968 561 329.937V189C561 186.791 562.791 185 565 185H706C708.209 185 710 183.209 710 181V54C710 51.7909 708.209 50 706 50H330Z" fill="#FBFBFB" stroke="#959595"/>
    <path id="2-18" d="M873 446C873 443.791 871.211 442.005 869.004 441.903C851.119 441.074 827.776 435.219 825.549 434.652C825.421 434.619 825.319 434.599 825.189 434.577C810.887 432.235 774.535 412.874 773.582 412.302L766.548 407.613C765.891 407.175 765.119 406.941 764.329 406.941L729 406.941C726.791 406.942 725 408.732 725 410.941V507C725 509.209 726.791 511 729 511H869C871.209 511 873 509.209 873 507V446Z" fill="#FBFBFB" stroke="#959595"/>
    <path id="2-16" d="M1118 283C1118 280.791 1116.21 279 1114 279H1053C1050.79 279 1049 280.791 1049 283V293.999C1049 296.208 1047.21 297.999 1045 297.999H1021.15H999.845C998.156 297.999 996.649 299.06 996.079 300.651L988.896 320.706C987.969 323.296 989.872 326.028 992.624 326.054L1021.82 326.335L1114.01 326.014C1116.22 326.006 1118 324.218 1118 322.014V283Z" fill="#FBFBFB" stroke="#959595"/>
    <path id="2-17" d="M1118 507C1118 509.209 1116.21 511 1114 511H877C874.791 511 873 509.209 873 507V446.002C873 443.792 874.792 442.001 877.002 442.002L941.197 442.032C942.87 442.033 944.367 440.992 944.949 439.422L986.033 328.61C986.614 327.041 988.11 326 989.783 326H1114C1116.21 326 1118 327.791 1118 330V507Z" fill="#FBFBFB" stroke="#959595"/>
    <path id="2-14" d="M1114 279C1116.21 279 1118 277.209 1118 275V246C1118 243.791 1116.21 242 1114 242H1053C1050.79 242 1049 243.791 1049 246V275C1049 277.209 1050.79 279 1053 279H1114Z" fill="#FBFBFB" stroke="#959595"/>
    <path id="2-13" d="M1114 205H1053C1050.79 205 1049 206.791 1049 209V238C1049 240.209 1050.79 242 1053 242H1114C1116.21 242 1118 240.209 1118 238V209C1118 206.791 1116.21 205 1114 205Z" fill="#FBFBFB" stroke="#959595"/>
    <path id="2-12" d="M1114 179H1053C1050.79 179 1049 180.791 1049 183V201C1049 203.209 1050.79 205 1053 205H1114C1116.21 205 1118 203.209 1118 201V183C1118 180.791 1116.21 179 1114 179Z" fill="#FBFBFB" stroke="#959595"/>
    <path id="2-11" d="M1114 136H1053C1050.79 136 1049 137.791 1049 140V175C1049 177.209 1050.79 179 1053 179H1114C1116.21 179 1118 177.209 1118 175V140C1118 137.791 1116.21 136 1114 136Z" fill="#FBFBFB" stroke="#959595"/>
    <path id="2-9" d="M1013.04 50H979C976.791 50 975 51.7909 975 54V114C975 116.209 976.791 118 979 118H1013.04C1015.24 118 1017.04 116.209 1017.04 114V54C1017.04 51.7909 1015.24 50 1013.04 50Z" fill="#FBFBFB" stroke="#959595"/>
    <path id="2-8" d="M971 50H941C938.791 50 937 51.7909 937 54V114C937 116.209 938.791 118 941 118H971C973.209 118 975 116.209 975 114V54C975 51.7909 973.209 50 971 50Z" fill="#FBFBFB" stroke="#959595"/>
    <path id="2-21" d="M606 575C608.209 575 610 573.209 610 571V412.186C610 409.906 608.096 408.087 605.818 408.19L533 411.5L462.339 416.323L360.188 432.98L329.306 438.418C327.394 438.754 326 440.416 326 442.357V571C326 573.209 327.791 575 330 575H606Z" fill="#FBFBFB" stroke="#959595"/>
    <path id="2-20" d="M610 571C610 573.209 611.791 575 614 575H656C658.209 575 660 573.209 660 571V411.58C660 409.339 658.16 407.536 655.92 407.581L613.92 408.42C611.743 408.464 610 410.241 610 412.419V571Z" fill="#FBFBFB" stroke="#959595"/>
    <path id="2-1" d="M272 54C272 51.7909 270.209 50 268 50H54C51.7909 50 50 51.7909 50 54V315C50 317.209 51.7909 319 54 319H268C270.209 319 272 317.209 272 315V54Z" fill="#FBFBFB" stroke="#959595"/>
    <path id="2-22" d="M389.675 353.041C391.596 352.712 393 351.047 393 349.098V323C393 320.791 391.209 319 389 319H54C51.7909 319 50 320.791 50 323V571C50 573.209 51.7909 575 54 575H322C324.209 575 326 573.209 326 571V443.599C326 441.17 323.851 439.301 321.445 439.638L274.603 446.2C272.667 446.471 270.818 445.303 270.232 443.439L266.64 432.018C266.522 431.641 266.46 431.248 266.456 430.852L266.011 377.784C265.995 375.828 267.395 374.147 269.322 373.81L314.138 365.97L389.675 353.041Z" fill="#FBFBFB" stroke="#959595"/>
    <path id="2-19" d="M663.96 407.46C661.767 407.482 660 409.267 660 411.46V571C660 573.209 661.791 575 664 575H706C708.209 575 710 573.209 710 571V411.04C710 408.815 708.185 407.018 705.96 407.04L663.96 407.46Z" fill="#FBFBFB" stroke="#959595"/>
    <path d="M290.983 414.614C286.389 415.538 282.707 412.268 283.988 407.76C287.735 394.574 297.469 385.272 312.032 382.434C320.718 380.741 355.612 374.747 371.275 372.067C375.556 371.334 379.616 374.159 380.447 378.422L381.129 381.92C381.985 386.307 379.08 390.543 374.68 391.327L369.431 392.262C367.259 392.649 365.362 393.936 363.913 395.599C362.013 397.781 359.017 400.599 355.688 401.389C351.361 402.433 309.358 410.919 290.983 414.614Z" fill="white"/>
    <path d="M283.507 407.624C282.819 410.044 283.459 412.184 284.938 413.587C286.407 414.98 288.649 415.593 291.082 415.104C309.446 411.411 351.46 402.923 355.804 401.875C359.297 401.046 362.382 398.119 364.29 395.928C365.685 394.326 367.487 393.117 369.519 392.755L374.768 391.819C379.443 390.987 382.529 386.485 381.62 381.824L380.938 378.327C380.055 373.798 375.742 370.795 371.19 371.574C355.532 374.253 320.63 380.249 311.936 381.943C297.19 384.818 287.306 394.255 283.507 407.624Z" stroke="black" stroke-opacity="0.2"/>
    <path d="M469.877 368.025C467.422 363.99 470.791 359.516 475.499 359.14C504.532 356.825 596.884 349.569 616.188 349.408C643.854 349.062 678.204 343.226 695.557 367.156C698.801 371.63 695.213 377.354 689.693 377.621L508.675 386.36C495.579 386.949 477.418 380.416 469.877 368.025Z" fill="white"/>
    <path d="M508.697 386.859L508.699 386.859L689.717 378.12C692.646 377.979 695.076 376.388 696.343 374.218C697.616 372.038 697.709 369.273 695.961 366.862C687.167 354.734 674.075 350.177 659.792 348.681C649.865 347.642 639.289 348.077 629.131 348.495C624.706 348.677 620.36 348.856 616.182 348.908C596.853 349.07 504.477 356.328 475.459 358.642C472.962 358.841 470.801 360.128 469.587 361.931C468.364 363.749 468.112 366.086 469.45 368.285C473.29 374.595 479.812 379.383 486.993 382.518C494.175 385.654 502.065 387.158 508.697 386.859Z" stroke="black" stroke-opacity="0.2"/>
    <path d="M741.011 359.678C741.187 356.764 743.523 354.432 746.438 354.271C812.953 350.602 849.391 360.508 903.024 400.84C905.724 402.871 906.826 406.405 905.788 409.621L903.683 416.146C902.56 419.628 899.21 421.905 895.558 421.676C854.453 419.099 822.897 416.717 776.026 390.768C775.678 390.576 775.334 390.349 775.019 390.106C758.515 377.377 747.422 368.121 742.998 364.368C741.628 363.206 740.903 361.471 741.011 359.678Z" fill="white"/>
    <path d="M746.411 353.772C743.241 353.947 740.703 356.481 740.512 359.648C740.395 361.595 741.182 363.484 742.674 364.749C747.104 368.507 758.203 377.767 774.714 390.502C775.048 390.76 775.414 391.001 775.784 391.206C822.754 417.209 854.4 419.596 895.527 422.175C899.406 422.418 902.966 420 904.159 416.3L906.264 409.774C907.366 406.358 906.197 402.601 903.324 400.441C876.48 380.254 853.908 367.657 829.702 360.575C805.498 353.494 779.696 351.936 746.411 353.772Z" stroke="black" stroke-opacity="0.2"/>
    <path id="2-6" d="M825 98H714C711.791 98 710 99.7909 710 102V225C710 227.209 711.791 229 714 229H825C827.209 229 829 227.209 829 225V102C829 99.7909 827.209 98 825 98Z" fill="#FBFBFB" stroke="#959595"/>
    <path id="2-3" d="M561 189C561 186.791 562.791 185 565 185H606C608.209 185 610 186.791 610 189V327.66C610 329.806 608.307 331.569 606.163 331.657L565.163 333.33C562.892 333.423 561 331.607 561 329.333V189Z" fill="#FBFBFB" stroke="#959595"/>
    <path id="2-4" d="M706.06 330.059C708.245 330.026 710 328.245 710 326.06L710 189C710 186.791 708.209 185 706 185H614C611.791 185 610 186.791 610 189V327.44C610 329.672 611.828 331.473 614.06 331.439L706.06 330.059Z" fill="#FBFBFB" stroke="#959595"/>
    <path id="2-5" d="M828.316 233.553C828.703 231.155 826.833 229 824.404 229H714C711.791 229 710 230.791 710 233L710 325.923C710 328.162 711.838 329.965 714.077 329.922L770.688 328.845C771.33 328.833 771.953 328.672 772.513 328.358C779.704 324.318 797.841 312.592 809.054 292.338C809.083 292.286 809.098 292.227 809.098 292.167C809.098 292.101 809.107 292.052 809.142 291.996C810.356 290.004 822.717 268.236 828.316 233.553Z" fill="#FBFBFB" stroke="#959595"/>
    <path d="M1127 573.496V52C1127 45.9249 1122.08 41 1116 41H52C45.9249 41 41 45.9249 41 52V573.004C41 579.077 45.9219 584.001 51.9949 584.004L1115.99 584.496C1122.07 584.499 1127 579.573 1127 573.496Z" stroke="black" stroke-opacity="0.2" stroke-width="6"/>
    <path id="2-7" d="M933 50H863C860.791 50 859 51.7909 859 54V114C859 116.209 860.791 118 863 118H933C935.209 118 937 116.209 937 114V54C937 51.7909 935.209 50 933 50Z" fill="#FBFBFB" stroke="#959595"/>
    <path id="2-10" d="M1019.04 119.149C1017.78 118.44 1017 117.103 1017 115.655L1017.13 53.9922C1017.13 51.7861 1018.92 50 1021.13 50H1114C1116.21 50 1118 51.7909 1118 54V132C1118 134.209 1116.21 136 1114 136H1050.05C1049.36 136 1048.69 135.823 1048.09 135.486L1019.04 119.149Z" fill="#FBFBFB" stroke="#959595"/>
    <path fill-rule="evenodd" clip-rule="evenodd" d="M1012 283C1004.31 283 998 276.789 998 269C998 261.211 1004.21 255 1012 255C1019.79 255 1026 261.211 1026 269C1026 276.789 1019.69 283 1012 283Z" fill="#FBFBFB" stroke="#959595"/>
    <path d="M1020.41 271.53C1020.7 271.237 1020.7 270.762 1020.41 270.469L1010.53 260.591C1010.24 260.298 1009.76 260.298 1009.47 260.591L1008.4 261.659C1008.62 262.056 1008.75 262.514 1008.75 263C1008.75 264.518 1007.52 265.75 1006 265.75C1005.51 265.75 1005.06 265.623 1004.66 265.401L1003.59 266.469C1003.3 266.762 1003.3 267.237 1003.59 267.53L1013.47 277.409C1013.76 277.702 1014.24 277.702 1014.53 277.409L1015.6 276.34C1015.38 275.943 1015.25 275.485 1015.25 275C1015.25 273.481 1016.48 272.25 1018 272.25C1018.49 272.25 1018.94 272.376 1019.34 272.598L1020.41 271.53ZM1021.47 269.409C1022.35 270.288 1022.35 271.712 1021.47 272.591L1020.3 273.762C1019.79 274.273 1019.07 274.182 1018.64 273.924C1018.45 273.813 1018.23 273.75 1018 273.75C1017.31 273.75 1016.75 274.309 1016.75 275C1016.75 275.234 1016.81 275.451 1016.92 275.637C1017.18 276.07 1017.27 276.787 1016.76 277.298L1015.59 278.469C1014.71 279.348 1013.29 279.348 1012.41 278.469L1002.53 268.591C1001.65 267.712 1001.65 266.287 1002.53 265.409L1003.7 264.237C1004.21 263.726 1004.93 263.818 1005.36 264.075C1005.55 264.186 1005.77 264.25 1006 264.25C1006.69 264.25 1007.25 263.69 1007.25 263C1007.25 262.765 1007.19 262.548 1007.08 262.362C1006.82 261.929 1006.73 261.212 1007.24 260.702L1008.41 259.53C1009.29 258.651 1010.71 258.651 1011.59 259.53L1021.47 269.409Z" fill="#3383A4"/>
    <path d="M732.91 68.3945L734.876 71.3381C734.937 71.4305 734.977 71.5349 734.993 71.6437L735.002 71.7538V76.2498C735.002 76.6295 734.719 76.9433 734.353 76.993L734.252 76.9998H732.998L732.999 80.2534C732.999 80.6676 732.663 81.0034 732.249 81.0034C731.869 81.0034 731.555 80.7212 731.506 80.3551L731.499 80.2534L731.498 76.9998L729.503 76.9988L729.504 80.2564C729.504 80.6706 729.168 81.0064 728.754 81.0064C728.374 81.0064 728.06 80.7242 728.01 80.3582L728.004 80.2564L728.003 76.9988L726.754 76.9998C726.374 76.9998 726.06 76.7176 726.011 76.3516L726.004 76.2498V71.7538C726.004 71.6428 726.029 71.5338 726.075 71.4342L726.13 71.3381L728.113 68.3505C728.863 68.3505 729.659 68.8418 729.432 69.0693C729.432 69.1803 729.479 68.9698 729.432 69.0693L729.378 69.1654L727.504 71.9806V75.4998H733.502V71.9806L731.627 69.1654C731.566 69.0731 731.526 68.9686 731.51 68.8598L731.502 68.7498C731.502 68.5233 732.157 68.3943 732.91 68.3945ZM744.501 68H745.252C745.631 68 745.945 68.2821 745.995 68.6482L746.002 68.75V74.2458C746.002 74.3568 745.977 74.4658 745.93 74.5654L745.876 74.6615L744.002 77.4766V80.2498C744.002 80.664 743.666 80.9998 743.252 80.9998C742.872 80.9998 742.558 80.7176 742.508 80.3516L742.502 80.2498V77.2498C742.502 77.1389 742.526 77.0298 742.573 76.9302L742.627 76.8342L744.502 74.019V69.5H738.504V74.019L740.378 76.8342C740.44 76.9265 740.48 77.0309 740.496 77.1398L740.504 77.2498V80.2498C740.504 80.664 740.168 80.9998 739.754 80.9998C739.374 80.9998 739.06 80.7176 739.011 80.3516L739.004 80.2498V77.4766L737.13 74.6615C737.068 74.5691 737.028 74.4647 737.012 74.3559L737.004 74.2458V68.75C737.004 68.3703 737.286 68.0565 737.652 68.0069L737.754 68H738.506C741 68.0006 742 68 744.501 68Z" fill="#3383A4"/>
    <path d="M732.25 68H731.499C728.998 68 731.996 68.0006 729.502 68H728.75L728.648 68.0069C728.282 68.0565 728 68.3703 728 68.75V69.5H729.5H731.5H733V68.75L732.993 68.6482C732.944 68.2821 732.63 68 732.25 68Z" fill="#3383A4"/>
    <path d="M729 64C729 63.1716 729.672 62.5 730.5 62.5C731.328 62.5 732 63.1716 732 64C732 64.8284 731.328 65.5 730.5 65.5C729.672 65.5 729 64.8284 729 64ZM730.5 61C728.843 61 727.5 62.3432 727.5 64C727.5 65.6569 728.843 67 730.5 67C732.157 67 733.5 65.6569 733.5 64C733.5 62.3432 732.157 61 730.5 61Z" fill="#3383A4"/>
    <path d="M739.93 64C739.93 63.1716 740.601 62.5 741.43 62.5C742.258 62.5 742.93 63.1716 742.93 64C742.93 64.8284 742.258 65.5 741.43 65.5C740.601 65.5 739.93 64.8284 739.93 64ZM741.43 61C739.773 61 738.43 62.3432 738.43 64C738.43 65.6569 739.773 67 741.43 67C743.087 67 744.43 65.6569 744.43 64C744.43 62.3432 743.087 61 741.43 61Z" fill="#3383A4"/>
    <path d="M799.91 68.3946L801.876 71.3382C801.937 71.4306 801.977 71.535 801.993 71.6438L802.002 71.7539V76.2499C802.002 76.6296 801.719 76.9434 801.353 76.9931L801.252 76.9999H799.998L799.999 80.2535C799.999 80.6677 799.663 81.0035 799.249 81.0035C798.869 81.0035 798.555 80.7213 798.506 80.3552L798.499 80.2535L798.498 76.9999L796.503 76.9989L796.504 80.2565C796.504 80.6707 796.168 81.0065 795.754 81.0065C795.374 81.0065 795.06 80.7243 795.01 80.3583L795.004 80.2565L795.003 76.9989L793.754 76.9999C793.374 76.9999 793.06 76.7177 793.011 76.3517L793.004 76.2499V71.7539C793.004 71.6429 793.029 71.5339 793.075 71.4343L793.13 71.3382L795.113 68.3506C795.863 68.3506 796.659 68.8419 796.432 69.0694C796.432 69.1804 796.479 68.9699 796.432 69.0694L796.378 69.1655L794.504 71.9807V75.4999H800.502V71.9807L798.627 69.1655C798.566 69.0732 798.526 68.9687 798.51 68.8599L798.502 68.7499C798.502 68.5234 799.157 68.3944 799.91 68.3946Z" fill="#3383A4"/>
    <path d="M799.25 68H798.499C795.998 68 798.996 68.0006 796.502 68H795.75L795.648 68.0069C795.282 68.0565 795 68.3703 795 68.75V69.5H796.5H798.5H800V68.75L799.993 68.6482C799.944 68.2821 799.63 68 799.25 68Z" fill="#3383A4"/>
    <path d="M796 64C796 63.1716 796.672 62.5 797.5 62.5C798.328 62.5 799 63.1716 799 64C799 64.8284 798.328 65.5 797.5 65.5C796.672 65.5 796 64.8284 796 64ZM797.5 61C795.843 61 794.5 62.3432 794.5 64C794.5 65.6569 795.843 67 797.5 67C799.157 67 800.5 65.6569 800.5 64C800.5 62.3432 799.157 61 797.5 61Z" fill="#3383A4"/>
    <path d="M807 73L806 73C805.448 73 805 73.4477 805 74L805 75C805 75.5523 805.448 76 806 76L812.984 76C812.994 76 813.004 75.9959 813.011 75.9886V75.9886C814.199 74.801 814.493 72.9868 813.742 71.4846L813 70" stroke="#3383A4" stroke-width="1.5" stroke-linejoin="round"/>
    <rect x="805" y="79" width="2" height="2" rx="1" fill="#3383A4"/>
    <rect x="811" y="79" width="2" height="2" rx="1" fill="#3383A4"/>
    <circle cx="809" cy="70" r="1.75" stroke="#3383A4" stroke-width="1.5"/>
    <path d="M767.5 64C767.5 63.1716 768.172 62.5 769 62.5C769.828 62.5 770.5 63.1716 770.5 64C770.5 64.8284 769.828 65.5 769 65.5C768.172 65.5 767.5 64.8284 767.5 64ZM769 61C767.343 61 766 62.3432 766 64C766 65.6569 767.343 67 769 67C770.657 67 772 65.6569 772 64C772 62.3432 770.657 61 769 61Z" fill="#3383A4"/>
    <path d="M766 72.5V68H768.5L771 75H775.5V81" stroke="#3383A4" stroke-width="1.5" stroke-linecap="round" stroke-linejoin="round"/>
    <circle cx="767" cy="77" r="4.25" stroke="#3383A4" stroke-width="1.5"/>
    <path d="M294.751 63L294.649 63.0068C294.283 63.0565 294.001 63.3703 294.001 63.75L294 76.442L290.78 73.2244L290.696 73.1518C290.402 72.9341 289.986 72.9585 289.719 73.2248C289.427 73.5179 289.427 73.9927 289.72 74.2855L294.224 78.7855L294.308 78.8581C294.601 79.0758 295.018 79.0514 295.284 78.7851L299.781 74.2851L299.853 74.2009C300.071 73.9072 300.046 73.4905 299.78 73.2244L299.696 73.1518C299.402 72.9341 298.986 72.9585 298.719 73.2248L295.5 76.446L295.501 63.75L295.494 63.6482C295.444 63.2822 295.131 63 294.751 63Z" fill="#3383A4"/>
    <path d="M303.249 79.0059L303.351 78.999C303.717 78.9493 303.999 78.6356 303.999 78.2559L304 65.5639L307.22 68.7815L307.304 68.8541C307.598 69.0718 308.014 69.0474 308.281 68.7811C308.573 68.488 308.573 68.0132 308.28 67.7204L303.776 63.2204L303.692 63.1478C303.399 62.9301 302.982 62.9545 302.716 63.2208L298.219 67.7208L298.147 67.805C297.929 68.0987 297.954 68.5154 298.22 68.7815L298.304 68.8541C298.598 69.0718 299.014 69.0474 299.281 68.7811L302.5 65.5599L302.499 78.2559L302.506 78.3576C302.556 78.7237 302.869 79.0059 303.249 79.0059Z" fill="#3383A4"/>
    <path d="M310 61H288V81H310V61Z" stroke="#3383A4" stroke-width="1.3" stroke-linejoin="round"/>
    <path d="M960.25 180.25C960.63 180.25 960.944 180.532 960.993 180.898L961 181V197C961 197.414 960.664 197.75 960.25 197.75C959.87 197.75 959.556 197.468 959.507 197.102L959.5 197V192H957.25C956.87 192 956.556 191.718 956.507 191.352L956.5 191.25V184C956.5 181.929 958.179 180.25 960.25 180.25ZM954.25 180.25C954.63 180.25 954.944 180.532 954.993 180.898L955 181V185C955 186.953 953.601 188.578 951.751 188.93L951.75 197C951.75 197.414 951.414 197.75 951 197.75C950.62 197.75 950.307 197.468 950.257 197.102L950.25 197L950.25 188.93C948.466 188.592 947.101 187.067 947.005 185.208L947 185V181C947 180.586 947.336 180.25 947.75 180.25C948.13 180.25 948.443 180.532 948.493 180.898L948.5 181V185C948.5 186.12 949.236 187.067 950.25 187.386L950.25 181C950.25 180.586 950.586 180.25 951 180.25C951.38 180.25 951.693 180.532 951.743 180.898L951.75 181L951.751 187.385C952.708 187.084 953.417 186.223 953.493 185.185L953.5 185V181C953.5 180.586 953.836 180.25 954.25 180.25ZM959.5 190.5V181.878C958.677 182.169 958.074 182.924 958.006 183.829L958 184V190.5H959.5Z" fill="black"/>
    <path d="M1094.75 538L1094.65 538.007C1094.28 538.057 1094 538.37 1094 538.75L1094 551.442L1090.78 548.224L1090.7 548.152C1090.4 547.934 1089.99 547.958 1089.72 548.225C1089.43 548.518 1089.43 548.993 1089.72 549.285L1094.22 553.785L1094.31 553.858C1094.6 554.076 1095.02 554.051 1095.28 553.785L1099.78 549.285L1099.85 549.201C1100.07 548.907 1100.05 548.49 1099.78 548.224L1099.7 548.152C1099.4 547.934 1098.99 547.958 1098.72 548.225L1095.5 551.446L1095.5 538.75L1095.49 538.648C1095.44 538.282 1095.13 538 1094.75 538Z" fill="#3383A4"/>
    <path d="M1103.25 554.006L1103.35 553.999C1103.72 553.949 1104 553.636 1104 553.256L1104 540.564L1107.22 543.781L1107.3 543.854C1107.6 544.072 1108.01 544.047 1108.28 543.781C1108.57 543.488 1108.57 543.013 1108.28 542.72L1103.78 538.22L1103.69 538.148C1103.4 537.93 1102.98 537.954 1102.72 538.221L1098.22 542.721L1098.15 542.805C1097.93 543.099 1097.95 543.515 1098.22 543.781L1098.3 543.854C1098.6 544.072 1099.01 544.047 1099.28 543.781L1102.5 540.56L1102.5 553.256L1102.51 553.358C1102.56 553.724 1102.87 554.006 1103.25 554.006Z" fill="#3383A4"/>
    <path d="M1110 536H1088V556H1110V536Z" stroke="#3383A4" stroke-width="1.3" stroke-linejoin="round"/>
    <path d="M354.5 379C354.5 378.172 355.172 377.5 356 377.5C356.828 377.5 357.5 378.172 357.5 379C357.5 379.828 356.828 380.5 356 380.5C355.172 380.5 354.5 379.828 354.5 379ZM356 376C354.343 376 353 377.343 353 379C353 380.657 354.343 382 356 382C357.657 382 359 380.657 359 379C359 377.343 357.657 376 356 376Z" fill="#3383A4"/>
    <path d="M350.25 389C350.25 389.414 350.586 389.75 351 389.75C351.414 389.75 351.75 389.414 351.75 389H350.25ZM351 387L350.502 386.439C350.342 386.582 350.25 386.786 350.25 387H351ZM355.5 383H356.25C356.25 382.705 356.077 382.437 355.807 382.316C355.538 382.195 355.222 382.243 355.002 382.439L355.5 383ZM354.75 387.5V388.25H356.25V387.5H354.75ZM351.75 389V387H350.25V389H351.75ZM351.498 387.561L355.998 383.561L355.002 382.439L350.502 386.439L351.498 387.561ZM354.75 383V387.5H356.25V383H354.75Z" fill="#3383A4"/>
    <path d="M360.5 383H367V388H362.5L354.5 396H347V391H352.5L360.5 383Z" stroke="#3383A4" stroke-width="1.5" stroke-linecap="round" stroke-linejoin="round"/>
    <path d="M870.5 393C870.5 392.172 871.172 391.5 872 391.5C872.828 391.5 873.5 392.172 873.5 393C873.5 393.828 872.828 394.5 872 394.5C871.172 394.5 870.5 393.828 870.5 393ZM872 390C870.343 390 869 391.343 869 393C869 394.657 870.343 396 872 396C873.657 396 875 394.657 875 393C875 391.343 873.657 390 872 390Z" fill="#3383A4"/>
    <path d="M866.25 403C866.25 403.414 866.586 403.75 867 403.75C867.414 403.75 867.75 403.414 867.75 403H866.25ZM867 401L866.502 400.439C866.342 400.582 866.25 400.786 866.25 401H867ZM871.5 397H872.25C872.25 396.705 872.077 396.437 871.807 396.316C871.538 396.195 871.222 396.243 871.002 396.439L871.5 397ZM870.75 401.5V402.25H872.25V401.5H870.75ZM867.75 403V401H866.25V403H867.75ZM867.498 401.561L871.998 397.561L871.002 396.439L866.502 400.439L867.498 401.561ZM870.75 397V401.5H872.25V397H870.75Z" fill="#3383A4"/>
    <path d="M876.5 397H883V402H878.5L870.5 410H863V405H868.5L876.5 397Z" stroke="#3383A4" stroke-width="1.5" stroke-linecap="round" stroke-linejoin="round"/>
</svg>
