<svg width="1604" height="521" viewBox="0 0 1604 521" fill="none" xmlns="http://www.w3.org/2000/svg">
    <rect width="1604" height="521" fill="white"/>
    <path d="M47 155H1516" stroke="#CCCCCC" stroke-width="6" stroke-linecap="round"/>
    <path d="M122 357C122 354.239 124.239 352 127 352H1511C1513.76 352 1516 354.239 1516 357V436H122V357Z" stroke="#CCCCCC" stroke-width="6"/>
    <rect id="p-1" x="229" y="169" width="44" height="22" rx="4" fill="#FBFBFB" stroke="#959595"/>
    <rect id="p-7" x="724" y="89" width="44" height="22" rx="4" fill="#FBFBFB" stroke="#959595"/>
    <rect id="p-8" x="768" y="89" width="44" height="22" rx="4" fill="#FBFBFB" stroke="#959595"/>
    <rect id="p-9" x="812" y="89" width="44" height="22" rx="4" fill="#FBFBFB" stroke="#959595"/>
    <rect id="p-2" x="229" y="191" width="44" height="22" rx="4" fill="#FBFBFB" stroke="#959595"/>
    <rect id="p-3" x="229" y="233" width="44" height="44" rx="4" fill="#FBFBFB" stroke="#959595"/>
    <rect id="p-6" x="523" y="169" width="44" height="44" rx="4" fill="#FBFBFB" stroke="#959595"/>
    <rect id="p-10" x="1013" y="169" width="44" height="44" rx="4" fill="#FBFBFB" stroke="#959595"/>
    <rect id="p-5" x="523" y="297" width="44" height="44" rx="4" fill="#FBFBFB" stroke="#959595"/>
    <rect id="p-11" x="1013" y="297" width="44" height="44" rx="4" fill="#FBFBFB" stroke="#959595"/>
    <rect id="p-14" x="1307" y="297" width="44" height="44" rx="4" fill="#FBFBFB" stroke="#959595"/>
    <rect id="p-16" x="1307" y="169" width="44" height="44" rx="4" fill="#FBFBFB" stroke="#959595"/>
    <rect id="p-15" x="1307" y="233" width="44" height="44" rx="4" fill="#FBFBFB" stroke="#959595"/>
    <rect id="p-4" x="229" y="297" width="44" height="44" rx="4" fill="#FBFBFB" stroke="#959595"/>
    <path d="M300 158.5V353" stroke="#CCCCCC" stroke-width="6"/>
    <path d="M398 158.5V353" stroke="#CCCCCC" stroke-width="6"/>
    <path d="M496 158.5V353" stroke="#CCCCCC" stroke-width="6"/>
    <path d="M594 158.5V353" stroke="#CCCCCC" stroke-width="6"/>
    <path d="M692 158.5V353" stroke="#CCCCCC" stroke-width="6"/>
    <path d="M790 158.5V353" stroke="#CCCCCC" stroke-width="6"/>
    <path d="M888 158.5V353" stroke="#CCCCCC" stroke-width="6"/>
    <path d="M986 158.5V353" stroke="#CCCCCC" stroke-width="6"/>
    <path d="M1084 158.5V353" stroke="#CCCCCC" stroke-width="6"/>
    <path d="M1182 158.5V353" stroke="#CCCCCC" stroke-width="6"/>
    <path d="M1280 158.5V353" stroke="#CCCCCC" stroke-width="6"/>
    <rect id="p-12" x="1097" y="369" width="170" height="50" rx="4" fill="#FBFBFB" stroke="#959595"/>
    <rect id="p-13" x="1329" y="369" width="170" height="50" rx="4" fill="#FBFBFB" stroke="#959595"/>
    <rect x="44" y="433" width="1516" height="44" rx="8" fill="#CCCCCC"/>
    <path opacity="0.43" d="M44 40V52C44 56.4183 47.5817 60 52 60H1357C1361.42 60 1365 56.4183 1365 52V40" stroke="black" stroke-opacity="0.2" stroke-width="6" stroke-linecap="round"/>
    <rect x="393" y="45" width="41" height="30" fill="white"/>
    <rect x="94" y="45" width="41" height="30" fill="white"/>
    <rect x="1172" y="45" width="41" height="30" fill="white"/>
    <rect x="696" y="45" width="214" height="30" fill="white"/>
    <path d="M786 398C786.552 398 787 397.552 787 397C787 396.448 786.552 396 786 396C785.448 396 785 396.448 785 397C785 397.552 785.448 398 786 398ZM795 397C795 397.552 794.552 398 794 398C793.448 398 793 397.552 793 397C793 396.448 793.448 396 794 396C794.552 396 795 396.448 795 397ZM788.75 387C788.336 387 788 387.336 788 387.75C788 388.164 788.336 388.5 788.75 388.5H791.25C791.664 388.5 792 388.164 792 387.75C792 387.336 791.664 387 791.25 387H788.75ZM785.75 384C783.679 384 782 385.679 782 387.75V391.5H780.75C780.336 391.5 780 391.836 780 392.25C780 392.664 780.336 393 780.75 393H782V401.75C782 402.716 782.784 403.5 783.75 403.5H785.25C786.217 403.5 787 402.716 787 401.75V400.5H793V401.75C793 402.716 793.784 403.5 794.75 403.5H796.25C797.217 403.5 798 402.716 798 401.75V393H799.227C799.642 393 799.977 392.664 799.977 392.25C799.977 391.836 799.642 391.5 799.227 391.5H798V387.75C798 385.679 796.321 384 794.25 384H785.75ZM796.5 400.5V401.75C796.5 401.888 796.388 402 796.25 402H794.75C794.612 402 794.5 401.888 794.5 401.75V400.5H796.5ZM796.5 399H783.5V395H796.5V399ZM783.5 401.75V400.5H785.5V401.75C785.5 401.888 785.388 402 785.25 402H783.75C783.612 402 783.5 401.888 783.5 401.75ZM783.5 387.75C783.5 386.507 784.508 385.5 785.75 385.5H794.25C795.493 385.5 796.5 386.507 796.5 387.75V393.5H783.5V387.75Z" fill="#3383A4"/>
    <path d="M749.799 385C751.29 385 752.589 386.014 752.952 387.46L753.337 389H754.25C754.63 389 754.944 389.282 754.993 389.648L755 389.75C755 390.13 754.718 390.443 754.352 390.493L754.25 390.5H753.714L753.922 391.326C754.571 391.721 755.004 392.435 755.004 393.25V401.747C755.004 402.713 754.221 403.497 753.254 403.497H751.75C750.783 403.497 750 402.713 750 401.747L749.999 400.5H742.004L742.004 401.747C742.004 402.713 741.221 403.497 740.254 403.497H738.75C737.784 403.497 737 402.713 737 401.747V393.25C737 392.435 737.433 391.721 738.082 391.327L738.289 390.5H737.75C737.37 390.5 737.057 390.218 737.007 389.852L737 389.75C737 389.37 737.282 389.057 737.648 389.007L737.75 389H738.663L739.049 387.462C739.411 386.015 740.711 385 742.202 385H749.799ZM740.504 400.5H738.499L738.5 401.747C738.5 401.885 738.612 401.997 738.75 401.997H740.254C740.392 401.997 740.504 401.885 740.504 401.747L740.504 400.5ZM753.504 400.5H751.499L751.5 401.747C751.5 401.885 751.612 401.997 751.75 401.997H753.254C753.392 401.997 753.504 401.885 753.504 401.747L753.504 400.5ZM752.754 392.5H739.25C738.836 392.5 738.5 392.836 738.5 393.25V399H753.504V393.25C753.504 392.836 753.168 392.5 752.754 392.5ZM744.249 396H747.751C748.165 396 748.501 396.336 748.501 396.75C748.501 397.13 748.219 397.444 747.852 397.493L747.751 397.5H744.249C743.835 397.5 743.499 397.164 743.499 396.75C743.499 396.37 743.781 396.056 744.147 396.007L744.249 396ZM751 394C751.552 394 752 394.448 752 395C752 395.552 751.552 396 751 396C750.448 396 750 395.552 750 395C750 394.448 750.448 394 751 394ZM741 394C741.552 394 742 394.448 742 395C742 395.552 741.552 396 741 396C740.448 396 740 395.552 740 395C740 394.448 740.448 394 741 394ZM749.799 386.5H742.202C741.399 386.5 740.699 387.047 740.504 387.826L739.711 391H752.293L751.497 387.824C751.302 387.046 750.602 386.5 749.799 386.5Z" fill="#3383A4"/>
    <path d="M825.5 394C825.5 389.306 829.306 385.5 834 385.5C838.694 385.5 842.5 389.306 842.5 394C842.5 398.694 838.694 402.5 834 402.5C829.306 402.5 825.5 398.694 825.5 394ZM834 384C828.477 384 824 388.477 824 394C824 399.523 828.477 404 834 404C839.523 404 844 399.523 844 394C844 388.477 839.523 384 834 384Z" fill="#3383A4"/>
    <path d="M830.297 400V388.64H835.065C835.577 388.64 836.046 388.746 836.473 388.96C836.9 389.173 837.273 389.456 837.593 389.808C837.913 390.16 838.158 390.554 838.329 390.992C838.5 391.429 838.585 391.877 838.585 392.336C838.585 392.965 838.441 393.568 838.153 394.144C837.876 394.709 837.476 395.168 836.953 395.52C836.441 395.872 835.844 396.048 835.161 396.048H832.089V400H830.297ZM832.089 394.464H835.049C835.39 394.464 835.689 394.373 835.945 394.192C836.201 394 836.398 393.744 836.537 393.424C836.686 393.104 836.761 392.741 836.761 392.336C836.761 391.92 836.676 391.552 836.505 391.232C836.334 390.912 836.11 390.666 835.833 390.496C835.566 390.314 835.273 390.224 834.953 390.224H832.089V394.464Z" fill="#3383A4"/>
</svg>
