<svg xmlns="http://www.w3.org/2000/svg" style="display: none" aria-hidden="true" focusable="false">
    <symbol viewBox="0 0 24 24" id="burger">
        <path d="M2 5.75C2 5.33579 2.33579 5 2.75 5H18.25C18.6642 5 19 5.33579 19 5.75C19 6.16421 18.6642 6.5 18.25 6.5H2.75C2.33579 6.5 2 6.16421 2 5.75ZM2 17.75C2 17.3358 2.33579 17 2.75 17H15.25C15.6642 17 16 17.3358 16 17.75C16 18.1642 15.6642 18.5 15.25 18.5H2.75C2.33579 18.5 2 18.1642 2 17.75ZM2.75 11C2.33579 11 2 11.3358 2 11.75C2 12.1642 2.33579 12.5 2.75 12.5H21.25C21.6642 12.5 22 12.1642 22 11.75C22 11.3358 21.6642 11 21.25 11H2.75Z" />
    </symbol>

    <symbol viewBox="0 0 24 24" id="close">
        <path d="M17.9379 5.56049C18.2064 5.82898 18.229 6.25035 18.0053 6.54434L17.9382 6.62118L12.8124 11.7487L17.9411 16.8774C18.234 17.1703 18.234 17.6452 17.9411 17.938C17.6726 18.2065 17.2512 18.2289 16.9572 18.0052L16.8805 17.938L11.7517 12.8093L6.62726 17.9366C6.33445 18.2296 5.85948 18.2298 5.5666 17.9369C5.29811 17.6684 5.27556 17.2471 5.49928 16.953L5.56639 16.8762L10.6911 11.7487L5.56526 6.62284C5.27236 6.32995 5.27237 5.85507 5.56526 5.56218C5.83375 5.2937 6.25515 5.27132 6.54915 5.49503L6.62592 5.56218L11.7517 10.688L16.8773 5.56073C17.1701 5.26777 17.645 5.2676 17.9379 5.56049Z" />
    </symbol>

    <symbol viewBox="0 0 24 24" id="search">
        <path d="M4.5 10C4.5 6.96243 6.96243 4.5 10 4.5C13.0376 4.5 15.5 6.96243 15.5 10C15.5 13.0376 13.0376 15.5 10 15.5C6.96243 15.5 4.5 13.0376 4.5 10ZM10 3C6.13401 3 3 6.13401 3 10C3 13.866 6.13401 17 10 17C11.6628 17 13.1902 16.4202 14.3911 15.4518L19.7197 20.7803C20.0126 21.0732 20.4874 21.0732 20.7803 20.7803C21.0732 20.4874 21.0732 20.0126 20.7803 19.7197L15.4518 14.3911C16.4202 13.1902 17 11.6628 17 10C17 6.13401 13.866 3 10 3Z" />
    </symbol>

    <symbol viewBox="0 0 24 24" id="arrow-up">
        <path d="M4.20889 10.7327C3.92319 11.0326 3.93479 11.5074 4.23469 11.7931C4.53459 12.0788 5.00939 12.0672 5.29509 11.7673L11.2496 5.516L11.2496 20.25C11.2496 20.6642 11.5853 21 11.9996 21C12.4138 21 12.7496 20.6642 12.7496 20.25L12.7496 5.5156L18.7044 11.7673C18.9901 12.0672 19.4648 12.0788 19.7647 11.7931C20.0646 11.5074 20.0762 11.0326 19.7905 10.7327L12.7238 3.3138C12.5628 3.1447 12.3574 3.0448 12.1438 3.0139C12.0971 3.0048 12.0489 3 11.9996 3C11.9499 3 11.9013 3.0048 11.8543 3.0141C11.6412 3.0452 11.4363 3.1451 11.2756 3.3138L4.20889 10.7327Z" />
    </symbol>

    <symbol viewBox="0 0 24 24" id="arrow-right">
        <path d="M13.2673 4.2095C12.9674 3.9238 12.4926 3.9354 12.2069 4.2353C11.9212 4.5352 11.9328 5.01 12.2327 5.2957L18.484 11.2502L3.75 11.2502C3.33579 11.2502 3 11.5859 3 12.0002C3 12.4144 3.33579 12.7502 3.75 12.7502L18.4844 12.7502L12.2327 18.705C11.9328 18.9907 11.9212 19.4654 12.2069 19.7653C12.4926 20.0652 12.9674 20.0768 13.2673 19.7911L20.6862 12.7244C20.8553 12.5634 20.9552 12.358 20.9861 12.1444C20.9952 12.0977 21 12.0495 21 12.0002C21 11.9505 20.9952 11.9019 20.9859 11.8549C20.9548 11.6418 20.8549 11.4369 20.6862 11.2762L13.2673 4.2095Z" />
    </symbol>

    <symbol viewBox="0 0 24 24" id="arrow-left">
        <path d="M10.7327 19.7905C11.0326 20.0762 11.5074 20.0646 11.7931 19.7647C12.0788 19.4648 12.0672 18.99 11.7673 18.7043L5.516 12.7498L20.25 12.7498C20.6642 12.7498 21 12.4141 21 11.9998C21 11.5856 20.6642 11.2498 20.25 11.2498L5.5156 11.2498L11.7673 5.29502C12.0672 5.00933 12.0788 4.5346 11.7931 4.23467C11.5074 3.93475 11.0326 3.9232 10.7327 4.20889L3.3138 11.2756C3.1447 11.4366 3.0448 11.642 3.0139 11.8556C3.0048 11.9023 3 11.9505 3 11.9998C3 12.0495 3.0048 12.0981 3.0141 12.1451C3.0452 12.3582 3.1451 12.5631 3.3138 12.7238L10.7327 19.7905Z" />
    </symbol>

    <symbol viewBox="0 0 24 24" id="arrow-down">
        <path d="M19.7925 13.7673C20.0782 13.4674 20.0666 12.9926 19.7667 12.7069C19.4668 12.4212 18.992 12.4328 18.7063 12.7327L12.7518 18.984L12.7518 4.25C12.7518 3.83579 12.4161 3.5 12.0018 3.5C11.5876 3.5 11.2518 3.83579 11.2518 4.25L11.2518 18.9844L5.29697 12.7327C5.01128 12.4328 4.53655 12.4212 4.23662 12.7069C3.9367 12.9926 3.92515 13.4674 4.21084 13.7673L11.2776 21.1862C11.4386 21.3553 11.644 21.4552 11.8576 21.4861C11.9043 21.4952 11.9524 21.5 12.0017 21.5C12.0514 21.5 12.1 21.4952 12.147 21.4859C12.3602 21.4548 12.565 21.3549 12.7257 21.1862L19.7925 13.7673Z" fill="black"/>
    </symbol>

    <symbol viewBox="0 0 24 24" id="arrow-transition">
        <path d="M21.2498 4.5C21.6295 4.5 21.9433 4.78215 21.993 5.14823L21.9998 5.25V18.2541C21.9998 18.6683 21.664 19.0041 21.2498 19.0041C20.8701 19.0041 20.5563 18.7219 20.5066 18.3558L20.4998 18.2541V5.25C20.4998 4.83579 20.8356 4.5 21.2498 4.5ZM12.6469 6.30373L12.7195 6.21961C12.9858 5.95338 13.4025 5.92921 13.6961 6.1471L13.7802 6.21972L18.7768 11.2174C19.0429 11.4835 19.0672 11.8999 18.8496 12.1935L18.7771 12.2776L13.7805 17.2811C13.4878 17.5742 13.0129 17.5745 12.7198 17.2818C12.4534 17.0157 12.4289 16.5991 12.6465 16.3053L12.7191 16.2211L16.43 12.504L2.75 12.5049C2.3703 12.5049 2.05651 12.2228 2.00685 11.8567L2 11.7549C2 11.3753 2.28215 11.0615 2.64823 11.0118L2.75 11.0049L16.443 11.004L12.7194 7.28028C12.4532 7.01398 12.429 6.59732 12.6469 6.30373Z" />
    </symbol>

    <symbol viewBox="0 0 24 24" id="arrow-step-right">
        <path d="M8.70554 16.2342C8.42066 16.5349 8.43349 17.0096 8.73419 17.2945C9.03489 17.5793 9.50959 17.5665 9.79447 17.2658L14.2945 12.5158C14.5685 12.2265 14.5685 11.7735 14.2945 11.4842L9.79447 6.73419C9.50959 6.43349 9.03489 6.42066 8.73419 6.70554C8.43349 6.99041 8.42066 7.46511 8.70554 7.76581L12.0064 11.25H2.75C2.33579 11.25 2 11.5858 2 12C2 12.4142 2.33579 12.75 2.75 12.75H12.0063L8.70554 16.2342ZM22 12C22 10.3431 20.6569 9 19 9C17.3431 9 16 10.3431 16 12C16 13.6569 17.3431 15 19 15C20.6569 15 22 13.6569 22 12ZM20.5 12C20.5 12.8284 19.8284 13.5 19 13.5C18.1716 13.5 17.5 12.8284 17.5 12C17.5 11.1716 18.1716 10.5 19 10.5C19.8284 10.5 20.5 11.1716 20.5 12Z" />
    </symbol>

    <symbol viewBox="0 0 24 24" id="list-abc">
        <path d="M8.75086 4L8.64909 4.00685C8.28301 4.05651 8.00086 4.3703 8.00086 4.75L8 17.442L4.78011 14.2244L4.69596 14.1518C4.40226 13.9341 3.9856 13.9585 3.71945 14.2248C3.42668 14.5179 3.42688 14.9927 3.71989 15.2855L8.22365 19.7855L8.3078 19.8581C8.6015 20.0758 9.01816 20.0514 9.28431 19.7851L13.7806 15.2851L13.8531 15.2009C14.0709 14.9072 14.0465 14.4905 13.7801 14.2244L13.696 14.1518C13.4023 13.9341 12.9856 13.9585 12.7194 14.2248L9.5 17.446L9.50086 4.75L9.49401 4.64823C9.44435 4.28215 9.13056 4 8.75086 4ZM12.25 4.5C11.8358 4.5 11.5 4.83579 11.5 5.25C11.5 5.66421 11.8358 6 12.25 6H20.25C20.6642 6 21 5.66421 21 5.25C21 4.83579 20.6642 4.5 20.25 4.5H12.25ZM11.5 8.25C11.5 7.83579 11.8358 7.5 12.25 7.5H17.25C17.6642 7.5 18 7.83579 18 8.25C18 8.66421 17.6642 9 17.25 9H12.25C11.8358 9 11.5 8.66421 11.5 8.25ZM12.25 10.5C11.8358 10.5 11.5 10.8358 11.5 11.25C11.5 11.6642 11.8358 12 12.25 12H14.25C14.6642 12 15 11.6642 15 11.25C15 10.8358 14.6642 10.5 14.25 10.5H12.25Z" />
    </symbol>

    <symbol viewBox="0 0 24 24" id="apps-list">
        <path d="M6.24788 16.0021C7.21437 16.0021 7.99788 16.7856 7.99788 17.7521V20.25C7.99788 21.2165 7.21437 22 6.24788 22H3.75C2.7835 22 2 21.2165 2 20.25V17.7521C2 16.7856 2.7835 16.0021 3.75 16.0021H6.24788ZM6.24788 17.5021H3.75C3.61193 17.5021 3.5 17.6141 3.5 17.7521V20.25C3.5 20.3881 3.61193 20.5 3.75 20.5H6.24788C6.38595 20.5 6.49788 20.3881 6.49788 20.25V17.7521C6.49788 17.6141 6.38595 17.5021 6.24788 17.5021ZM9.74809 18H21.2529C21.6671 18 22.0029 18.3358 22.0029 18.75C22.0029 19.1297 21.7207 19.4435 21.3547 19.4932L21.2529 19.5H9.74809C9.33388 19.5 8.99809 19.1642 8.99809 18.75C8.99809 18.3703 9.28025 18.0565 9.64632 18.0068L9.74809 18ZM6.24788 9.00106C7.21437 9.00106 7.99788 9.78456 7.99788 10.7511V13.2489C7.99788 14.2154 7.21437 14.9989 6.24788 14.9989H3.75C2.7835 14.9989 2 14.2154 2 13.2489V10.7511C2 9.78456 2.7835 9.00106 3.75 9.00106H6.24788ZM6.24788 10.5011H3.75C3.61193 10.5011 3.5 10.613 3.5 10.7511V13.2489C3.5 13.387 3.61193 13.4989 3.75 13.4989H6.24788C6.38595 13.4989 6.49788 13.387 6.49788 13.2489V10.7511C6.49788 10.613 6.38595 10.5011 6.24788 10.5011ZM9.74809 11H21.2529C21.6671 11 22.0029 11.3358 22.0029 11.75C22.0029 12.1297 21.7207 12.4435 21.3547 12.4932L21.2529 12.5H9.74809C9.33388 12.5 8.99809 12.1642 8.99809 11.75C8.99809 11.3703 9.28025 11.0565 9.64632 11.0068L9.74809 11ZM6.24788 2C7.21437 2 7.99788 2.7835 7.99788 3.75V6.24788C7.99788 7.21437 7.21437 7.99788 6.24788 7.99788H3.75C2.7835 7.99788 2 7.21437 2 6.24788V3.75C2 2.7835 2.7835 2 3.75 2H6.24788ZM6.24788 3.5H3.75C3.61193 3.5 3.5 3.61193 3.5 3.75V6.24788C3.5 6.38595 3.61193 6.49788 3.75 6.49788H6.24788C6.38595 6.49788 6.49788 6.38595 6.49788 6.24788V3.75C6.49788 3.61193 6.38595 3.5 6.24788 3.5ZM9.74809 4H21.2529C21.6671 4 22.0029 4.33579 22.0029 4.75C22.0029 5.1297 21.7207 5.44349 21.3547 5.49315L21.2529 5.5H9.74809C9.33388 5.5 8.99809 5.16421 8.99809 4.75C8.99809 4.3703 9.28025 4.05651 9.64632 4.00685L9.74809 4Z" />
    </symbol>

    <symbol viewBox="0 0 24 24" id="grid">
        <path d="M8.75 13C9.99264 13 11 14.0074 11 15.25V18.75C11 19.9926 9.99264 21 8.75 21H5.25C4.00736 21 3 19.9926 3 18.75V15.25C3 14.0074 4.00736 13 5.25 13H8.75ZM18.75 13C19.9926 13 21 14.0074 21 15.25V18.75C21 19.9926 19.9926 21 18.75 21H15.25C14.0074 21 13 19.9926 13 18.75V15.25C13 14.0074 14.0074 13 15.25 13H18.75ZM8.75 14.5H5.25C4.83579 14.5 4.5 14.8358 4.5 15.25V18.75C4.5 19.1642 4.83579 19.5 5.25 19.5H8.75C9.16421 19.5 9.5 19.1642 9.5 18.75V15.25C9.5 14.8358 9.16421 14.5 8.75 14.5ZM18.75 14.5H15.25C14.8358 14.5 14.5 14.8358 14.5 15.25V18.75C14.5 19.1642 14.8358 19.5 15.25 19.5H18.75C19.1642 19.5 19.5 19.1642 19.5 18.75V15.25C19.5 14.8358 19.1642 14.5 18.75 14.5ZM8.75 3C9.99264 3 11 4.00736 11 5.25V8.75C11 9.99264 9.99264 11 8.75 11H5.25C4.00736 11 3 9.99264 3 8.75V5.25C3 4.00736 4.00736 3 5.25 3H8.75ZM18.75 3C19.9926 3 21 4.00736 21 5.25V8.75C21 9.99264 19.9926 11 18.75 11H15.25C14.0074 11 13 9.99264 13 8.75V5.25C13 4.00736 14.0074 3 15.25 3H18.75ZM8.75 4.5H5.25C4.83579 4.5 4.5 4.83579 4.5 5.25V8.75C4.5 9.16421 4.83579 9.5 5.25 9.5H8.75C9.16421 9.5 9.5 9.16421 9.5 8.75V5.25C9.5 4.83579 9.16421 4.5 8.75 4.5ZM18.75 4.5H15.25C14.8358 4.5 14.5 4.83579 14.5 5.25V8.75C14.5 9.16421 14.8358 9.5 15.25 9.5H18.75C19.1642 9.5 19.5 9.16421 19.5 8.75V5.25C19.5 4.83579 19.1642 4.5 18.75 4.5Z" />
    </symbol>

    <symbol viewBox="0 0 24 24" id="plus">
        <path d="M20.5032 11.7466C20.5032 12.1263 20.2212 12.4402 19.8551 12.4899L19.7533 12.4968L12.5032 12.498L12.5032 19.7511C12.5032 20.1653 12.1674 20.5011 11.7532 20.5011C11.3735 20.5011 11.0597 20.2189 11.01 19.8529L11.0032 19.7511L11.0032 12.498L3.75407 12.5C3.33987 12.5001 3.00387 12.1644 3.00387 11.7502C3.00387 11.3705 3.28587 11.0566 3.65197 11.0069L3.75377 11L11.0032 10.998L11.0032 3.74902C11.0032 3.3348 11.339 2.99902 11.7532 2.99902C12.1329 2.99902 12.4467 3.28117 12.4964 3.64725L12.5032 3.74902L12.5032 10.998L19.753 10.9968C20.1672 10.9967 20.5032 11.3324 20.5032 11.7466Z" />
    </symbol>

    <symbol viewBox="0 0 24 24" id="minus">
        <path d="M20.5029 11.7469C20.5029 12.1266 20.2209 12.4405 19.8548 12.4902L19.7531 12.4971C14.42 12.498 9.08691 12.4988 3.75383 12.5003C3.33963 12.5004 3.00363 12.1647 3.00363 11.7505C3.00363 11.3708 3.28563 11.0569 3.65173 11.0072L3.75353 11.0003C9.08664 10.9988 14.4197 10.998 19.7528 10.9971C20.167 10.997 20.5029 11.3327 20.5029 11.7469Z" />
    </symbol>

    <symbol viewBox="0 0 24 24" id="elevator">
        <path d="M7.75086 4L7.64909 4.00685C7.28301 4.05651 7.00086 4.3703 7.00086 4.75L7 17.442L3.78011 14.2244L3.69596 14.1518C3.40226 13.9341 2.9856 13.9585 2.71945 14.2248C2.42668 14.5179 2.42688 14.9927 2.71989 15.2855L7.22365 19.7855L7.3078 19.8581C7.6015 20.0758 8.01816 20.0514 8.28431 19.7851L12.7806 15.2851L12.8531 15.2009C13.0709 14.9072 13.0465 14.4905 12.7801 14.2244L12.696 14.1518C12.4023 13.9341 11.9856 13.9585 11.7194 14.2248L8.5 17.446L8.50086 4.75L8.49401 4.64823C8.44435 4.28215 8.13056 4 7.75086 4Z" />
        <path d="M16.2491 20.0059L16.3509 19.999C16.717 19.9493 16.9991 19.6356 16.9991 19.2559L17 6.56386L20.2199 9.78146L20.304 9.85406C20.5977 10.0718 21.0144 10.0474 21.2806 9.78106C21.5733 9.48796 21.5731 9.01316 21.2801 8.72036L16.7764 4.22036L16.6922 4.14776C16.3985 3.93006 15.9818 3.95446 15.7157 4.22076L11.2194 8.72076L11.1469 8.80496C10.9291 9.09866 10.9535 9.51536 11.2199 9.78146L11.304 9.85406C11.5977 10.0718 12.0144 10.0474 12.2806 9.78106L15.5 6.55986L15.4991 19.2559L15.506 19.3576C15.5557 19.7237 15.8694 20.0059 16.2491 20.0059Z" />
        <path d="M23 2H1V22H23V2Z" stroke="black" stroke-width="1.3" stroke-linejoin="round"/>
    </symbol>

    <symbol viewBox="0 0 24 24" id="parking">
        <path d="M3.5 12C3.5 7.30558 7.30558 3.5 12 3.5C16.6944 3.5 20.5 7.30558 20.5 12C20.5 16.6944 16.6944 20.5 12 20.5C7.30558 20.5 3.5 16.6944 3.5 12ZM12 2C6.47715 2 2 6.47715 2 12C2 17.5228 6.47715 22 12 22C17.5228 22 22 17.5228 22 12C22 6.47715 17.5228 2 12 2Z" />
        <path d="M8.29541 17.9996V6.63965H13.0634C13.5754 6.63965 14.0447 6.74632 14.4714 6.95965C14.8981 7.17298 15.2714 7.45565 15.5914 7.80765C15.9114 8.15965 16.1567 8.55432 16.3274 8.99165C16.4981 9.42898 16.5834 9.87698 16.5834 10.3356C16.5834 10.965 16.4394 11.5676 16.1514 12.1436C15.8741 12.709 15.4741 13.1676 14.9514 13.5196C14.4394 13.8716 13.8421 14.0476 13.1594 14.0476H10.0874V17.9996H8.29541ZM10.0874 12.4636H13.0474C13.3887 12.4636 13.6874 12.373 13.9434 12.1916C14.1994 11.9996 14.3967 11.7436 14.5354 11.4236C14.6847 11.1036 14.7594 10.741 14.7594 10.3356C14.7594 9.91965 14.6741 9.55165 14.5034 9.23165C14.3327 8.91165 14.1087 8.66632 13.8314 8.49565C13.5647 8.31432 13.2714 8.22365 12.9514 8.22365H10.0874V12.4636Z" />
    </symbol>

    <symbol viewBox="0 0 24 24" id="toilet">
        <path d="M8.91016 9.39453L10.8759 12.3381C10.9374 12.4305 10.9773 12.5349 10.9935 12.6437L11.0016 12.7538V17.2498C11.0016 17.6295 10.7194 17.9433 10.3534 17.993L10.2516 17.9998H8.99791L8.99885 21.2534C8.99885 21.6676 8.66306 22.0034 8.24885 22.0034C7.86915 22.0034 7.55535 21.7212 7.50569 21.3551L7.49885 21.2534L7.49791 17.9998L5.50291 17.9988L5.5036 21.2564C5.5036 21.6706 5.16781 22.0064 4.7536 22.0064C4.3739 22.0064 4.06011 21.7242 4.01045 21.3582L4.0036 21.2564L4.00291 17.9988L2.75391 17.9998C2.37421 17.9998 2.06042 17.7176 2.01075 17.3516L2.00391 17.2498V12.7538C2.00391 12.6428 2.02851 12.5338 2.07539 12.4342L2.12962 12.3381L4.11288 9.35049C4.86257 9.35047 5.65925 9.84183 5.43242 10.0693C5.43242 10.1803 5.4793 9.96978 5.43242 10.0693L5.3782 10.1654L3.50391 12.9806V16.4998H9.5016V12.9806L7.62731 10.1654C7.56583 10.0731 7.52586 9.96864 7.50972 9.8598L7.5016 9.74977C7.5016 9.5233 8.15741 9.39429 8.91016 9.39453ZM20.5009 9H21.2516C21.6313 9 21.9451 9.28215 21.9948 9.64823L22.0016 9.75V15.2458C22.0016 15.3568 21.977 15.4658 21.9301 15.5654L21.8759 15.6615L20.0016 18.4766V21.2498C20.0016 21.664 19.6658 21.9998 19.2516 21.9998C18.8719 21.9998 18.5581 21.7176 18.5084 21.3516L18.5016 21.2498V18.2498C18.5016 18.1389 18.5262 18.0298 18.5731 17.9302L18.6273 17.8342L20.5016 15.019V10.5H14.5039V15.019L16.3782 17.8342C16.4397 17.9265 16.4796 18.0309 16.4958 18.1398L16.5039 18.2498V21.2498C16.5039 21.664 16.1681 21.9998 15.7539 21.9998C15.3742 21.9998 15.0604 21.7176 15.0108 21.3516L15.0039 21.2498V18.4766L13.1296 15.6615C13.0681 15.5691 13.0282 15.4647 13.012 15.3559L13.0039 15.2458V9.75C13.0039 9.3703 13.2861 9.05651 13.6521 9.00685L13.7539 9H14.5059C17 9.00063 18 9 20.5009 9Z" />
        <path d="M8.25 9H7.4993C4.9984 9 7.9961 9.00063 5.502 9H4.75L4.6482 9.00685C4.2822 9.05651 4 9.3703 4 9.75V10.5H5.5H7.5H9V9.75L8.9932 9.64823C8.9435 9.28215 8.6297 9 8.25 9Z" />
        <path d="M5 5C5 4.17157 5.6716 3.5 6.5 3.5C7.3284 3.5 8 4.17157 8 5C8 5.82843 7.3284 6.5 6.5 6.5C5.6716 6.5 5 5.82843 5 5ZM6.5 2C4.8431 2 3.5 3.34315 3.5 5C3.5 6.6569 4.8431 8 6.5 8C8.1569 8 9.5 6.6569 9.5 5C9.5 3.34315 8.1569 2 6.5 2Z" />
        <path d="M15.9297 5C15.9297 4.17157 16.6013 3.5 17.4297 3.5C18.2581 3.5 18.9297 4.17157 18.9297 5C18.9297 5.82843 18.2581 6.5 17.4297 6.5C16.6013 6.5 15.9297 5.82843 15.9297 5ZM17.4297 2C15.7728 2 14.4297 3.34315 14.4297 5C14.4297 6.6569 15.7728 8 17.4297 8C19.0866 8 20.4297 6.6569 20.4297 5C20.4297 3.34315 19.0866 2 17.4297 2Z" />
    </symbol>

    <symbol viewBox="0 0 24 24" id="money">
        <path d="M14.3557 2.59534C14.4445 2.48261 14.6098 2.46762 14.7175 2.56254L15.6385 3.37473L12.7383 7H14.6592L16.7648 4.36797L18.417 5.82489C18.5186 5.9145 18.5304 6.06873 18.4435 6.1727L17.7523 7H19.6965C20.1905 6.27893 20.0778 5.28948 19.4091 4.69984L15.7096 1.43749C14.9561 0.77305 13.7991 0.877958 13.1775 1.66709L8.9762 7H10.8858L14.3557 2.59534ZM16.25 14C15.8358 14 15.5 14.3358 15.5 14.75C15.5 15.1642 15.8358 15.5 16.25 15.5H18.25C18.6642 15.5 19 15.1642 19 14.75C19 14.3358 18.6642 14 18.25 14H16.25ZM4.5 7.25C4.5 6.83579 4.83579 6.5 5.25 6.5H8.37844L9.57 5H5.25C4.00736 5 3 6.00736 3 7.25V17.75C3 19.5449 4.45507 21 6.25 21H18.25C20.0449 21 21.5 19.5449 21.5 17.75V11.25C21.5 9.45507 20.0449 8 18.25 8H5.25C4.83579 8 4.5 7.66421 4.5 7.25ZM4.5 17.75V9.37197C4.73458 9.45488 4.98702 9.5 5.25 9.5H18.25C19.2165 9.5 20 10.2835 20 11.25V17.75C20 18.7165 19.2165 19.5 18.25 19.5H6.25C5.2835 19.5 4.5 18.7165 4.5 17.75Z" />
    </symbol>

    <symbol viewBox="0 0 24 24" id="way">
        <path d="M9.5 4C9.5 3.17157 10.1716 2.5 11 2.5C11.8284 2.5 12.5 3.17157 12.5 4C12.5 4.82843 11.8284 5.5 11 5.5C10.1716 5.5 9.5 4.82843 9.5 4ZM11 1C9.3431 1 8 2.34315 8 4C8 5.6569 9.3431 7 11 7C12.6569 7 14 5.6569 14 4C14 2.34315 12.6569 1 11 1Z" />
        <path d="M5.25 14C5.25 14.4142 5.58579 14.75 6 14.75C6.41421 14.75 6.75 14.4142 6.75 14H5.25ZM6 12L5.50173 11.4394C5.34161 11.5818 5.25 11.7858 5.25 12H6ZM10.5 8H11.25C11.25 7.70466 11.0767 7.43681 10.8072 7.31582C10.5378 7.19483 10.2225 7.24323 10.0017 7.43944L10.5 8ZM9.75 12.5V13.25H11.25V12.5H9.75ZM6.75 14V12H5.25V14H6.75ZM6.49827 12.5606L10.9983 8.56056L10.0017 7.43944L5.50173 11.4394L6.49827 12.5606ZM9.75 8V12.5H11.25V8H9.75Z" />
        <path d="M15.5 8H22V13H17.5L9.5 21H2V16H7.5L15.5 8Z" stroke="black" stroke-width="1.5" stroke-linecap="round" stroke-linejoin="round"/>
    </symbol>

    <symbol viewBox="0 0 24 24" id="map">
        <path d="M9.20337 3.9993L9.25042 3.99805L9.29617 3.99926C9.31861 4.00055 9.34109 4.00288 9.36355 4.00628L9.37963 4.01009C9.46504 4.02381 9.54992 4.05432 9.63082 4.10224L9.68268 4.13578L14.753 7.70105L19.82 4.13913C20.2878 3.81034 20.9215 4.10586 20.9944 4.6482L21.0014 4.75269V15.3852C21.0014 15.5945 20.914 15.7926 20.7632 15.9334L20.6827 15.9988L15.1827 19.8652C14.9158 20.0528 14.5948 20.0371 14.3549 19.8883L9.25002 16.297L4.18035 19.8618C3.71263 20.1906 3.07889 19.8951 3.00595 19.3527L2.99902 19.2483V8.61572C2.99902 8.4064 3.08638 8.20832 3.23714 8.06755L3.3177 8.00216L8.8177 4.13578C8.8817 4.09079 8.94882 4.05749 9.01717 4.03491L9.13964 4.0069L9.20337 3.9993ZM19.5014 6.1967L15.5014 9.00861V17.8076L19.5014 14.9957V6.1967ZM8.49902 6.19335L4.49902 9.00526V17.8042L8.49902 14.9923V6.19335ZM10.0014 6.19335V14.9923L14.0014 17.8042V9.00526L10.0014 6.19335Z" />
    </symbol>

    <symbol viewBox="0 0 24 24" id="call">
        <path d="M7.05694 2.41844L8.22394 2.06668C9.54645 1.66804 10.9594 2.31227 11.5258 3.5721L12.4275 5.57782C12.9102 6.65165 12.6558 7.91366 11.7948 8.71661L10.3005 10.1101C10.2568 10.1508 10.2291 10.2058 10.2225 10.2652C10.1781 10.6623 10.4474 11.4357 11.0676 12.51C11.5187 13.2913 11.9269 13.8391 12.2744 14.1473C12.5165 14.362 12.6498 14.4084 12.7065 14.3915L14.7169 13.7769C15.8425 13.4328 17.0623 13.8431 17.751 14.7976L19.0317 16.5726C19.8378 17.6898 19.6928 19.2311 18.6926 20.1784L17.8062 21.0178C16.8498 21.9236 15.4882 22.2611 14.2195 21.907C11.4654 21.1383 8.99608 18.8141 6.78421 14.9831C4.56926 11.1467 3.79207 7.84222 4.50852 5.07043C4.83639 3.80195 5.80252 2.79656 7.05694 2.41844ZM7.48984 3.85461C6.73719 4.08148 6.15751 4.68472 5.96079 5.44581C5.35814 7.77732 6.047 10.7062 8.08325 14.2331C10.1168 17.7552 12.3057 19.8155 14.6227 20.4622C15.384 20.6747 16.2009 20.4722 16.7748 19.9287L17.6611 19.0893C18.1158 18.6587 18.1817 17.9581 17.8153 17.4503L16.5346 15.6753C16.2215 15.2415 15.667 15.0549 15.1554 15.2114L13.1401 15.8275C11.9704 16.1762 10.9087 15.2347 9.7686 13.26C9.00029 11.9293 8.6422 10.9006 8.73177 10.0987C8.77817 9.68322 8.97174 9.29812 9.27746 9.01303L10.7718 7.61958C11.1632 7.2546 11.2788 6.68096 11.0594 6.19286L10.1577 4.18714C9.90026 3.61449 9.25798 3.32165 8.65684 3.50285L7.48984 3.85461Z" />
    </symbol>

    <symbol viewBox="0 0 24 24" id="ticket">
        <path d="M20.4087 14.5301C20.7016 14.2372 20.7016 13.7623 20.4087 13.4694L10.5301 3.59076C10.2372 3.29787 9.76231 3.29787 9.46941 3.59076L8.40121 4.65898C8.62331 5.0562 8.74971 5.51416 8.74971 5.99959C8.74971 7.51837 7.51851 8.74959 5.99971 8.74959C5.51421 8.74959 5.05631 8.62318 4.65911 8.4011L3.59071 9.46944C3.29781 9.76234 3.29781 10.2372 3.59071 10.5301L13.4694 20.4088C13.7623 20.7017 14.2372 20.7017 14.5301 20.4088L15.5983 19.3405C15.3762 18.9432 15.2497 18.4851 15.2497 17.9996C15.2497 16.4808 16.4809 15.2496 17.9997 15.2496C18.4852 15.2496 18.9433 15.3761 19.3406 15.5983L20.4087 14.5301ZM21.4694 12.4088C22.3481 13.2875 22.3481 14.7121 21.4694 15.5908L20.2979 16.7622C19.7872 17.273 19.0702 17.1815 18.637 16.9239C18.451 16.8133 18.2339 16.7496 17.9997 16.7496C17.3093 16.7496 16.7497 17.3092 16.7497 17.9996C16.7497 18.2338 16.8134 18.4509 16.924 18.6369C17.1816 19.0701 17.2731 19.7871 16.7623 20.2978L15.5907 21.4694C14.712 22.3481 13.2874 22.3481 12.4087 21.4694L2.53011 11.5908C1.65141 10.7121 1.65141 9.28746 2.53011 8.40878L3.70171 7.23712C4.21241 6.72643 4.92931 6.81786 5.36241 7.07533C5.54851 7.18589 5.76551 7.24959 5.99971 7.24959C6.69001 7.24959 7.24971 6.68994 7.24971 5.99959C7.24971 5.7654 7.18601 5.54837 7.07541 5.36237C6.81791 4.92921 6.72651 4.21233 7.23721 3.70164L8.40871 2.5301C9.28741 1.65142 10.712 1.65143 11.5907 2.5301L21.4694 12.4088Z" />
    </symbol>

    <symbol viewBox="0 0 24 24" id="clock">
        <path d="M3.5 12C3.5 7.30558 7.30558 3.5 12 3.5C16.6944 3.5 20.5 7.30558 20.5 12C20.5 16.6944 16.6944 20.5 12 20.5C7.30558 20.5 3.5 16.6944 3.5 12ZM12 2C6.47715 2 2 6.47715 2 12C2 17.5228 6.47715 22 12 22C17.5228 22 22 17.5228 22 12C22 6.47715 17.5228 2 12 2ZM11.9931 6.64827C11.9435 6.28233 11.6295 6 11.25 6C10.836 6 10.5 6.336 10.5 6.75V12.75L10.5069 12.8517C10.5565 13.2177 10.8705 13.5 11.25 13.5H15.25L15.3517 13.4931C15.7177 13.4435 16 13.1295 16 12.75C16 12.336 15.664 12 15.25 12H12V6.75L11.9931 6.64827Z" />
    </symbol>

    <symbol viewBox="0 0 24 24" id="cart">
        <path d="M2.5 4.25C2.5 3.83579 2.83579 3.5 3.25 3.5H3.80826C4.75873 3.5 5.32782 4.13899 5.65325 4.73299C5.87016 5.12894 6.02708 5.58818 6.14982 6.00395C6.18306 6.00134 6.21674 6 6.2508 6H18.7481C19.5783 6 20.1778 6.79442 19.9502 7.5928L18.1224 14.0019C17.7856 15.1832 16.7062 15.9978 15.4779 15.9978H9.52977C8.29128 15.9978 7.2056 15.1699 6.87783 13.9756L6.11734 11.2045L4.85874 6.95578L4.8567 6.94834C4.701 6.38051 4.55487 5.85005 4.33773 5.4537C4.12686 5.0688 3.95877 5 3.80826 5H3.25C2.83579 5 2.5 4.66421 2.5 4.25ZM7.57283 10.8403L8.32434 13.5786C8.47333 14.1215 8.96682 14.4978 9.52977 14.4978H15.4779C16.0362 14.4978 16.5268 14.1275 16.68 13.5906L18.4168 7.5H6.58549L7.55906 10.7868C7.56434 10.8046 7.56892 10.8224 7.57283 10.8403ZM11 19C11 20.1046 10.1046 21 9 21C7.89543 21 7 20.1046 7 19C7 17.8954 7.89543 17 9 17C10.1046 17 11 17.8954 11 19ZM9.5 19C9.5 18.7239 9.27614 18.5 9 18.5C8.72386 18.5 8.5 18.7239 8.5 19C8.5 19.2761 8.72386 19.5 9 19.5C9.27614 19.5 9.5 19.2761 9.5 19ZM18 19C18 20.1046 17.1046 21 16 21C14.8954 21 14 20.1046 14 19C14 17.8954 14.8954 17 16 17C17.1046 17 18 17.8954 18 19ZM16.5 19C16.5 18.7239 16.2761 18.5 16 18.5C15.7239 18.5 15.5 18.7239 15.5 19C15.5 19.2761 15.7239 19.5 16 19.5C16.2761 19.5 16.5 19.2761 16.5 19Z" />
    </symbol>

    <symbol viewBox="0 0 24 24" id="pin">
        <path d="M3.80591 7.7575L8.63167 2.9318C9.95893 1.6045 12.1964 1.9676 13.0359 3.6465L15.4713 8.5174C15.559 8.6927 15.7119 8.8268 15.8972 8.8908L20.0635 10.3301C20.9362 10.6316 21.1921 11.7426 20.5393 12.3955L17.4347 15.5L21.8741 19.9393L21.8741 21L20.8134 20.9999L16.3741 16.5606L13.2696 19.6651C12.6167 20.318 11.5057 20.0621 11.2042 19.1894L9.76498 15.0231C9.70096 14.8378 9.56689 14.6849 9.3915 14.5972L4.52062 12.1618C2.84174 11.3223 2.47864 9.0848 3.80591 7.7575ZM9.69233 3.9924L4.86657 8.8182C4.26326 9.4215 4.42831 10.4386 5.19144 10.8201L10.0623 13.2555C10.5885 13.5186 10.9907 13.9773 11.1827 14.5333L12.4915 18.3219L19.196 11.6174L15.4075 10.3086C14.8514 10.1165 14.3928 9.7143 14.1297 9.1882L11.6942 4.3173C11.3127 3.5542 10.2956 3.3891 9.69233 3.9924Z" />
    </symbol>

    <symbol viewBox="0 0 24 24" id="car">
        <path d="M15.7993 3C17.2899 3 18.5894 4.01393 18.9518 5.45974L19.337 7H20.25C20.6297 7 20.9435 7.28215 20.9932 7.64823L21 7.75C21 8.1297 20.7178 8.44349 20.3518 8.49315L20.25 8.5H19.714L19.922 9.3265C20.5708 9.72128 21.0041 10.435 21.0041 11.25V19.7468C21.0041 20.7133 20.2206 21.4968 19.2541 21.4968H17.75C16.7835 21.4968 16 20.7133 16 19.7468L15.999 18.5H8.004L8.00408 19.7468C8.00408 20.7133 7.22058 21.4968 6.25408 21.4968H4.75C3.7835 21.4968 3 20.7133 3 19.7468V11.25C3 10.4352 3.43316 9.72148 4.08177 9.32666L4.289 8.5H3.75C3.3703 8.5 3.05651 8.21785 3.00685 7.85177L3 7.75C3 7.3703 3.28215 7.05651 3.64823 7.00685L3.75 7H4.663L5.04898 5.46176C5.41068 4.01497 6.71062 3 8.20194 3H15.7993ZM6.504 18.5H4.499L4.5 19.7468C4.5 19.8848 4.61193 19.9968 4.75 19.9968H6.25408C6.39215 19.9968 6.50408 19.8848 6.50408 19.7468L6.504 18.5ZM19.504 18.5H17.499L17.5 19.7468C17.5 19.8848 17.6119 19.9968 17.75 19.9968H19.2541C19.3922 19.9968 19.5041 19.8848 19.5041 19.7468L19.504 18.5ZM18.7541 10.5H5.25C4.83579 10.5 4.5 10.8358 4.5 11.25V17H19.5041V11.25C19.5041 10.8358 19.1683 10.5 18.7541 10.5ZM10.249 14H13.7507C14.165 14 14.5007 14.3358 14.5007 14.75C14.5007 15.1297 14.2186 15.4435 13.8525 15.4932L13.7507 15.5H10.249C9.83478 15.5 9.49899 15.1642 9.49899 14.75C9.49899 14.3703 9.78115 14.0565 10.1472 14.0068L10.249 14ZM17 12C17.5522 12 17.9999 12.4477 17.9999 13C17.9999 13.5522 17.5522 13.9999 17 13.9999C16.4477 13.9999 16 13.5522 16 13C16 12.4477 16.4477 12 17 12ZM6.99997 12C7.55225 12 7.99995 12.4477 7.99995 13C7.99995 13.5522 7.55225 13.9999 6.99997 13.9999C6.4477 13.9999 6 13.5522 6 13C6 12.4477 6.4477 12 6.99997 12ZM15.7993 4.5H8.20194C7.39892 4.5 6.69895 5.04652 6.50419 5.82556L5.71058 9H18.2929L17.4968 5.82448C17.3017 5.04596 16.6019 4.5 15.7993 4.5Z" />
    </symbol>

    <symbol viewBox="0 0 24 24" id="bus">
        <path d="M8.00005 16C8.55234 16 9.00005 15.5523 9.00005 15C9.00005 14.4477 8.55234 14 8.00005 14C7.44777 14 7.00005 14.4477 7.00005 15C7.00005 15.5523 7.44777 16 8.00005 16ZM16.9998 15C16.9998 15.5523 16.5521 16 15.9998 16C15.4476 16 14.9998 15.5523 14.9998 15C14.9998 14.4477 15.4476 14 15.9998 14C16.5521 14 16.9998 14.4477 16.9998 15ZM10.7501 5C10.3359 5 10 5.33579 10 5.75C10 6.16421 10.3359 6.5 10.7501 6.5H13.2501C13.6643 6.5 14.0001 6.16421 14.0001 5.75C14.0001 5.33579 13.6643 5 13.2501 5H10.7501ZM7.75005 2C5.67898 2 4.00005 3.67893 4.00005 5.75V9.5H2.74988C2.33566 9.5 1.99988 9.83579 1.99988 10.25C1.99988 10.6642 2.33566 11 2.74988 11H4.00005V19.75C4.00005 20.7165 4.78355 21.5 5.75005 21.5H7.25005C8.21655 21.5 9.00005 20.7165 9.00005 19.75V18.5H15.0001V19.75C15.0001 20.7165 15.7836 21.5 16.7501 21.5H18.2501C19.2166 21.5 20.0001 20.7165 20.0001 19.75V11H21.2274C21.6416 11 21.9774 10.6642 21.9774 10.25C21.9774 9.83579 21.6416 9.5 21.2274 9.5H20.0001V5.75C20.0001 3.67893 18.3212 2 16.2501 2H7.75005ZM18.5001 18.5V19.75C18.5001 19.8881 18.3882 20 18.2501 20H16.7501C16.612 20 16.5001 19.8881 16.5001 19.75V18.5H18.5001ZM18.5001 17H5.50005V13H18.5001V17ZM5.50005 19.75V18.5H7.50005V19.75C7.50005 19.8881 7.38812 20 7.25005 20H5.75005C5.61198 20 5.50005 19.8881 5.50005 19.75ZM5.50005 5.75C5.50005 4.50736 6.50741 3.5 7.75005 3.5H16.2501C17.4927 3.5 18.5001 4.50736 18.5001 5.75V11.5H5.50005V5.75Z" />
    </symbol>

    <symbol viewBox="0 0 24 24" id="location">
        <path d="M5.84279 4.56789C9.2432 1.16748 14.7564 1.16748 18.1568 4.56789C21.5572 7.9683 21.5572 13.4815 18.1568 16.8819L16.9698 18.0558C16.0949 18.9144 14.9598 20.0184 13.5639 21.3679C12.6917 22.2113 11.3079 22.2112 10.4358 21.3677L6.94466 17.9718C6.5059 17.541 6.13863 17.1777 5.84279 16.8819C2.44238 13.4815 2.44238 7.9683 5.84279 4.56789ZM17.0961 5.62855C14.2815 2.81392 9.71807 2.81392 6.90345 5.62855C4.08882 8.44317 4.08882 13.0066 6.90345 15.8212L8.39052 17.2887C9.20943 18.0901 10.2389 19.0905 11.4786 20.2895C11.7693 20.5706 12.2305 20.5707 12.5213 20.2896L15.9162 16.9881C16.3851 16.5278 16.7785 16.1388 17.0961 15.8212C19.9107 13.0066 19.9107 8.44317 17.0961 5.62855ZM11.9998 7.99854C13.6575 7.99854 15.0013 9.34238 15.0013 11.0001C15.0013 12.6578 13.6575 14.0016 11.9998 14.0016C10.3421 14.0016 8.99823 12.6578 8.99823 11.0001C8.99823 9.34238 10.3421 7.99854 11.9998 7.99854ZM11.9998 9.49854C11.1705 9.49854 10.4982 10.1708 10.4982 11.0001C10.4982 11.8294 11.1705 12.5016 11.9998 12.5016C12.8291 12.5016 13.5013 11.8294 13.5013 11.0001C13.5013 10.1708 12.8291 9.49854 11.9998 9.49854Z" />
    </symbol>

    <symbol viewBox="0 0 24 24" id="browse">
        <path d="M10.9454 2.04712L10.9504 2.05443C11.2953 2.01845 11.6455 2 12 2C17.5229 2 22 6.47715 22 12C22 17.5228 17.5229 22 12 22C8.79072 22 5.93454 20.4882 4.10476 18.1379L4.10219 18.1374L4.10267 18.1353C2.78484 16.4414 2 14.3123 2 12C2 6.83804 5.91116 2.58957 10.9317 2.05639L10.9454 2.04712ZM12 3.5C11.9468 3.5 11.8937 3.50049 11.8407 3.50146C11.9632 3.74566 12.0949 4.0343 12.2144 4.35179C12.5613 5.27352 12.8802 6.6329 12.3143 7.83787C11.7917 8.95068 10.8896 9.23859 10.2242 9.41051L10.1395 9.43235C9.48319 9.60154 9.23081 9.6666 9.04671 9.9461C8.87773 10.2026 8.90332 10.5284 9.10809 11.1957C9.12248 11.2426 9.13805 11.2922 9.15429 11.3439C9.23539 11.6023 9.33316 11.9138 9.38413 12.2067C9.44752 12.5711 9.46544 13.0344 9.23208 13.4822C9.00059 13.9264 8.69374 14.2292 8.33119 14.4267C7.99065 14.6123 7.63794 14.6826 7.37405 14.7294L7.28108 14.7458C6.76621 14.8364 6.51992 14.8798 6.28005 15.1368C6.09384 15.3362 5.97367 15.6885 5.90348 16.2149C5.87491 16.4291 5.85774 16.6415 5.83998 16.8611L5.83044 16.9782C5.81046 17.2205 5.78568 17.4994 5.7312 17.7388L5.7309 17.7402C7.28488 19.4364 9.51823 20.5 12 20.5C13.577 20.5 15.0537 20.0705 16.3196 19.3222C16.2212 19.222 16.1144 19.1044 16.0091 18.9718C15.6696 18.5444 15.2243 17.8081 15.3788 16.939C15.453 16.5211 15.677 16.1712 15.8935 15.9029C16.1141 15.6295 16.3803 15.3769 16.6131 15.1626C16.6684 15.1117 16.7214 15.0633 16.7722 15.0169C16.9504 14.8542 17.1018 14.7159 17.2314 14.5802C17.4042 14.3991 17.4418 14.3175 17.4438 14.3133C17.5117 14.0886 17.4284 13.9294 17.3377 13.8592C17.2921 13.824 17.231 13.7984 17.1479 13.7978C17.0641 13.7971 16.9282 13.8222 16.7468 13.9372C16.5371 14.07 16.232 14.152 15.911 14.0228C15.6436 13.9151 15.4955 13.709 15.4244 13.5914C15.2805 13.3535 15.1996 13.0452 15.147 12.8191C15.1064 12.6447 15.0676 12.4467 15.0323 12.2661C15.0181 12.1938 15.0045 12.1242 14.9915 12.0601C14.941 11.8103 14.8984 11.6318 14.8574 11.5209C14.8574 11.5209 14.8518 11.5073 14.8382 11.4825C14.8235 11.4555 14.8027 11.421 14.7742 11.3777C14.7162 11.2894 14.6404 11.1857 14.5465 11.0613C14.5124 11.0161 14.4757 10.968 14.4373 10.9176C14.2762 10.7064 14.0842 10.4548 13.921 10.206C13.7252 9.90761 13.5039 9.51768 13.4339 9.10184C13.3968 8.88146 13.3974 8.62694 13.4889 8.36839C13.5825 8.10363 13.7535 7.88589 13.9754 7.7194C14.4589 7.35683 15.169 6.54683 15.7988 5.76036C16.0864 5.40123 16.3434 5.06476 16.5347 4.80938C15.2224 3.98001 13.6672 3.5 12 3.5ZM17.7274 5.71921C17.5298 5.98266 17.2658 6.32814 16.9696 6.69797C16.3679 7.44937 15.5703 8.38281 14.9201 8.88539C14.9455 8.98427 15.0204 9.14727 15.1751 9.38298C15.3062 9.58278 15.456 9.77946 15.6141 9.98695C15.6567 10.0428 15.7002 10.0999 15.7437 10.1576C15.9161 10.386 16.155 10.7047 16.2646 11.0014C16.3508 11.2349 16.4127 11.52 16.4618 11.7628C16.4791 11.8485 16.4951 11.9304 16.5105 12.0092C16.536 12.1396 16.5599 12.2616 16.5853 12.3786C17.1871 12.2069 17.7871 12.3106 18.2553 12.6726C18.8639 13.1432 19.118 13.9589 18.8797 14.7472C18.7704 15.1089 18.5157 15.4071 18.3165 15.6159C18.1475 15.7929 17.9449 15.9777 17.7612 16.1452C17.7158 16.1867 17.6712 16.2274 17.6289 16.2663C17.3989 16.478 17.2055 16.6656 17.061 16.8447C16.9124 17.0289 16.8658 17.144 16.8556 17.2014C16.8168 17.4199 16.9232 17.7109 17.1837 18.0388C17.3018 18.1875 17.4276 18.3128 17.5252 18.4015C17.5367 18.4119 17.5478 18.4218 17.5583 18.431C19.36 16.8724 20.5 14.5693 20.5 12C20.5 9.512 19.4311 7.27366 17.7274 5.71921ZM3.5 12C3.5 13.3984 3.83767 14.7178 4.43592 15.8814C4.5208 15.324 4.69794 14.6334 5.18354 14.1132C5.78336 13.4706 6.51914 13.3501 6.98167 13.2744C7.02795 13.2668 7.07175 13.2596 7.11214 13.2525C7.35983 13.2085 7.50307 13.1697 7.61358 13.1095C7.70209 13.0613 7.8014 12.9818 7.90187 12.789C7.91673 12.7605 7.94418 12.6815 7.90632 12.4638C7.8739 12.2775 7.81312 12.0826 7.73357 11.8276C7.71481 11.7674 7.69481 11.7033 7.67409 11.6357C7.48893 11.0324 7.193 10.0335 7.79403 9.12099C8.31567 8.32904 9.1547 8.12658 9.6873 7.99806C9.74505 7.98412 9.7992 7.97106 9.84895 7.9582C10.4119 7.81276 10.7323 7.67794 10.9566 7.20026C11.252 6.57127 11.1249 5.71532 10.8105 4.88019C10.6615 4.48421 10.4866 4.13625 10.3481 3.88653C10.3046 3.80813 10.2651 3.74015 10.2317 3.68419C6.38597 4.49793 3.5 7.91193 3.5 12Z" />
    </symbol>

    <symbol viewBox="0 0 24 24" id="chevron">
        <path d="M4.21967 8.46967C4.51256 8.17678 4.98744 8.17678 5.28033 8.46967L12 15.1893L18.7197 8.46967C19.0126 8.17678 19.4874 8.17678 19.7803 8.46967C20.0732 8.76256 20.0732 9.23744 19.7803 9.53033L12.5303 16.7803C12.2374 17.0732 11.7626 17.0732 11.4697 16.7803L4.21967 9.53033C3.92678 9.23744 3.92678 8.76256 4.21967 8.46967Z" />
    </symbol>

    <symbol viewBox="0 0 24 24" id="filter">
        <path d="M22.001 15.2478C22.001 16.2143 21.2175 16.9978 20.251 16.9978L17.7531 16.9978C16.7866 16.9978 16.0031 16.2143 16.0031 15.2478L16.0031 12.7499C16.0031 11.7834 16.7866 10.9999 17.7531 10.9999L20.251 10.9999C21.2175 10.9999 22.001 11.7834 22.001 12.7499L22.001 15.2478ZM20.501 15.2478L20.501 12.7499C20.501 12.6118 20.389 12.4999 20.251 12.4999L17.7531 12.4999C17.615 12.4999 17.5031 12.6118 17.5031 12.7499L17.5031 15.2478C17.5031 15.3858 17.615 15.4978 17.7531 15.4978L20.251 15.4978C20.389 15.4978 20.501 15.3858 20.501 15.2478Z" />
        <path d="M19.7544 11.2551L19.7544 2.75L19.7476 2.64823C19.6979 2.28216 19.3841 2 19.0044 2C18.5902 2 18.2544 2.33579 18.2544 2.75L18.2544 11.2551L18.2612 11.3569C18.3109 11.7229 18.6247 12.0051 19.0044 12.0051C19.4186 12.0051 19.7544 11.6693 19.7544 11.2551Z" />
        <path d="M19.7544 21.2528L19.7544 16.7509L19.7476 16.6491C19.6979 16.283 19.3841 16.0009 19.0044 16.0009C18.5902 16.0009 18.2544 16.3367 18.2544 16.7509L18.2544 21.2528L18.2612 21.3546C18.3109 21.7206 18.6247 22.0028 19.0044 22.0028C19.4186 22.0028 19.7544 21.667 19.7544 21.2528Z" />
        <path d="M19.7544 11.2551L19.7544 2.75L19.7476 2.64823C19.6979 2.28216 19.3841 2 19.0044 2C18.5902 2 18.2544 2.33579 18.2544 2.75L18.2544 11.2551L18.2612 11.3569C18.3109 11.7229 18.6247 12.0051 19.0044 12.0051C19.4186 12.0051 19.7544 11.6693 19.7544 11.2551Z" />
        <path d="M19.7544 21.2528L19.7544 16.7509L19.7476 16.6491C19.6979 16.283 19.3841 16.0009 19.0044 16.0009C18.5902 16.0009 18.2544 16.3367 18.2544 16.7509L18.2544 21.2528L18.2612 21.3546C18.3109 21.7206 18.6247 22.0028 19.0044 22.0028C19.4186 22.0028 19.7544 21.667 19.7544 21.2528Z" />
        <path d="M7.99805 15.2478C7.99805 16.2143 7.21455 16.9978 6.24805 16.9978L3.75017 16.9978C2.78368 16.9978 2.00017 16.2143 2.00017 15.2478L2.00017 12.7499C2.00017 11.7834 2.78368 10.9999 3.75017 10.9999L6.24805 10.9999C7.21455 10.9999 7.99805 11.7834 7.99805 12.7499L7.99805 15.2478ZM6.49805 15.2478L6.49805 12.7499C6.49805 12.6118 6.38612 12.4999 6.24805 12.4999L3.75017 12.4999C3.6121 12.4999 3.50017 12.6118 3.50017 12.7499L3.50017 15.2478C3.50017 15.3858 3.6121 15.4978 3.75017 15.4978L6.24805 15.4978C6.38612 15.4978 6.49805 15.3858 6.49805 15.2478Z" />
        <path d="M5.75144 11.2551L5.75144 2.75L5.74464 2.64823C5.69494 2.28216 5.38114 2 5.00144 2C4.58724 2 4.25144 2.33579 4.25144 2.75L4.25144 11.2551L4.25824 11.3569C4.30794 11.7229 4.62174 12.0051 5.00144 12.0051C5.41564 12.0051 5.75144 11.6693 5.75144 11.2551Z" />
        <path d="M5.75144 21.2528L5.75144 16.7509L5.74464 16.6491C5.69494 16.283 5.38114 16.0009 5.00144 16.0009C4.58724 16.0009 4.25144 16.3367 4.25144 16.7509L4.25144 21.2528L4.25824 21.3546C4.30794 21.7206 4.62174 22.0028 5.00144 22.0028C5.41564 22.0028 5.75144 21.667 5.75144 21.2528Z" />
        <path d="M5.75144 11.2551L5.75144 2.75L5.74464 2.64823C5.69494 2.28216 5.38114 2 5.00144 2C4.58724 2 4.25144 2.33579 4.25144 2.75L4.25144 11.2551L4.25824 11.3569C4.30794 11.7229 4.62174 12.0051 5.00144 12.0051C5.41564 12.0051 5.75144 11.6693 5.75144 11.2551Z" />
        <path d="M5.75144 21.2528L5.75144 16.7509L5.74464 16.6491C5.69494 16.283 5.38114 16.0009 5.00144 16.0009C4.58724 16.0009 4.25144 16.3367 4.25144 16.7509L4.25144 21.2528L4.25824 21.3546C4.30794 21.7206 4.62174 22.0028 5.00144 22.0028C5.41564 22.0028 5.75144 21.667 5.75144 21.2528Z" />
        <path d="M9 8.75614C9 7.78965 9.7835 7.00614 10.75 7.00614L13.2479 7.00614C14.2144 7.00614 14.9979 7.78965 14.9979 8.75614L14.9979 11.254C14.9979 12.2205 14.2144 13.004 13.2479 13.004L10.75 13.004C9.7835 13.004 9 12.2205 9 11.254L9 8.75614ZM10.5 8.75614L10.5 11.254C10.5 11.3921 10.6119 11.504 10.75 11.504L13.2479 11.504C13.386 11.504 13.4979 11.3921 13.4979 11.254L13.4979 8.75614C13.4979 8.61807 13.386 8.50614 13.2479 8.50614L10.75 8.50614C10.6119 8.50614 10.5 8.61807 10.5 8.75614Z" />
        <path d="M11.2466 12.7488L11.2466 21.2539L11.2534 21.3557C11.3031 21.7217 11.6169 22.0039 11.9966 22.0039C12.4108 22.0039 12.7466 21.6681 12.7466 21.2539L12.7466 12.7488L12.7398 12.647C12.6901 12.281 12.3763 11.9988 11.9966 11.9988C11.5824 11.9988 11.2466 12.3346 11.2466 12.7488Z" />
        <path d="M11.2466 2.75112L11.2466 7.25304L11.2534 7.35481C11.3031 7.72088 11.6169 8.00304 11.9966 8.00304C12.4108 8.00304 12.7466 7.66725 12.7466 7.25304L12.7466 2.75112L12.7398 2.64932C12.6901 2.28332 12.3763 2.00112 11.9966 2.00112C11.5824 2.00112 11.2466 2.33692 11.2466 2.75112Z" />
        <path d="M11.2466 12.7488L11.2466 21.2539L11.2534 21.3557C11.3031 21.7217 11.6169 22.0039 11.9966 22.0039C12.4108 22.0039 12.7466 21.6681 12.7466 21.2539L12.7466 12.7488L12.7398 12.647C12.6901 12.281 12.3763 11.9988 11.9966 11.9988C11.5824 11.9988 11.2466 12.3346 11.2466 12.7488Z" />
        <path d="M11.2466 2.75112L11.2466 7.25304L11.2534 7.35481C11.3031 7.72088 11.6169 8.00304 11.9966 8.00304C12.4108 8.00304 12.7466 7.66725 12.7466 7.25304L12.7466 2.75112L12.7398 2.64932C12.6901 2.28332 12.3763 2.00112 11.9966 2.00112C11.5824 2.00112 11.2466 2.33692 11.2466 2.75112Z" />
    </symbol>

    <symbol viewBox="0 0 24 24" id="sad">
        <path d="M12.0001 1.99805C17.5238 1.99805 22.0016 6.47589 22.0016 11.9996C22.0016 17.5233 17.5238 22.0011 12.0001 22.0011C6.47638 22.0011 1.99854 17.5233 1.99854 11.9996C1.99854 6.47589 6.47638 1.99805 12.0001 1.99805ZM12.0001 3.49805C7.30481 3.49805 3.49854 7.30432 3.49854 11.9996C3.49854 16.6949 7.30481 20.5011 12.0001 20.5011C16.6954 20.5011 20.5016 16.6949 20.5016 11.9996C20.5016 7.30432 16.6954 3.49805 12.0001 3.49805ZM12.0001 13.4971C13.6313 13.4971 15.1605 14.152 16.2811 15.2925C16.5714 15.588 16.5673 16.0628 16.2718 16.3531C15.9764 16.6434 15.5015 16.6393 15.2112 16.3438C14.3697 15.4874 13.2248 14.9971 12.0001 14.9971C10.7727 14.9971 9.62543 15.4896 8.78356 16.3493C8.49375 16.6453 8.01891 16.6503 7.72296 16.3605C7.42701 16.0707 7.42203 15.5958 7.71184 15.2999C8.83305 14.1549 10.3652 13.4971 12.0001 13.4971ZM9.00053 8.75024C9.6905 8.75024 10.2498 9.30956 10.2498 9.99953C10.2498 10.6895 9.6905 11.2488 9.00053 11.2488C8.31057 11.2488 7.75124 10.6895 7.75124 9.99953C7.75124 9.30956 8.31057 8.75024 9.00053 8.75024ZM15.0005 8.75024C15.6905 8.75024 16.2498 9.30956 16.2498 9.99953C16.2498 10.6895 15.6905 11.2488 15.0005 11.2488C14.3106 11.2488 13.7512 10.6895 13.7512 9.99953C13.7512 9.30956 14.3106 8.75024 15.0005 8.75024Z" />
    </symbol>

    <symbol viewBox="0 0 24 24" id="gard">
        <path d="M12 12.1304L22 15.8261V21H2V15.8261L12 12.1304ZM12 12.1304V9.17391H12.49C13.9187 9.17391 15.0769 8.01569 15.0769 6.58696V6.58696C15.0769 5.15822 13.9187 4 12.49 4H11.9097C10.6851 4 9.69231 4.99276 9.69231 6.21739V6.21739" stroke="black" stroke-width="1.5" stroke-linecap="round" stroke-linejoin="round"/>
    </symbol>

    <symbol viewBox="0 0 24 24" id="invalid">
        <path d="M9.5 5C9.5 4.17157 10.1716 3.5 11 3.5C11.8284 3.5 12.5 4.17157 12.5 5C12.5 5.82843 11.8284 6.5 11 6.5C10.1716 6.5 9.5 5.82843 9.5 5ZM11 2C9.3431 2 8 3.34315 8 5C8 6.6569 9.3431 8 11 8C12.6569 8 14 6.6569 14 5C14 3.34315 12.6569 2 11 2Z" />
        <path d="M8 13.5V9H10.5L13 16H17.5V22" stroke="black" stroke-width="1.5" stroke-linecap="round" stroke-linejoin="round"/>
        <circle cx="9" cy="18" r="4.25" stroke="black" stroke-width="1.5"/>
    </symbol>

    <symbol viewBox="0 0 24 24" id="food">
        <path d="M17.25 4.25C17.6297 4.25 17.9435 4.53215 17.9932 4.89823L18 5V21C18 21.4142 17.6642 21.75 17.25 21.75C16.8703 21.75 16.5565 21.4678 16.5068 21.1018L16.5 21V16H14.25C13.8703 16 13.5565 15.7178 13.5068 15.3518L13.5 15.25V8C13.5 5.92893 15.1789 4.25 17.25 4.25ZM11.25 4.25C11.6297 4.25 11.9435 4.53215 11.9932 4.89823L12 5V9C12 10.9526 10.6009 12.5784 8.7506 12.9297L8.75 21C8.75 21.4142 8.41421 21.75 8 21.75C7.6203 21.75 7.30651 21.4678 7.25685 21.1018L7.25 21L7.25039 12.9299C5.46566 12.5915 4.10054 11.0675 4.00531 9.20795L4 9V5C4 4.58579 4.33579 4.25 4.75 4.25C5.1297 4.25 5.44349 4.53215 5.49315 4.89823L5.5 5V9C5.5 10.1196 6.23593 11.0672 7.25042 11.3857L7.25 5C7.25 4.58579 7.58579 4.25 8 4.25C8.3797 4.25 8.69349 4.53215 8.74315 4.89823L8.75 5L8.75057 11.3854C9.7082 11.0843 10.4174 10.2225 10.4933 9.18486L10.5 9V5C10.5 4.58579 10.8358 4.25 11.25 4.25ZM16.5 14.5V5.87803C15.6775 6.16874 15.0745 6.9241 15.0064 7.82871L15 8V14.5H16.5Z" />
    </symbol>

    <symbol viewBox="0 0 24 24" id="mother">
        <path d="M7.91016 9.39463L9.8759 12.3382C9.9374 12.4306 9.9773 12.535 9.9935 12.6438L10.0016 12.7539V17.2499C10.0016 17.6296 9.7194 17.9434 9.3534 17.9931L9.2516 17.9999H7.99791L7.99885 21.2535C7.99885 21.6677 7.66306 22.0035 7.24885 22.0035C6.86915 22.0035 6.55535 21.7213 6.50569 21.3552L6.49885 21.2535L6.49791 17.9999L4.50291 17.9989L4.5036 21.2565C4.5036 21.6707 4.16781 22.0065 3.7536 22.0065C3.3739 22.0065 3.06011 21.7243 3.01045 21.3583L3.0036 21.2565L3.00291 17.9989L1.75391 17.9999C1.37421 17.9999 1.06042 17.7177 1.01075 17.3517L1.00391 17.2499V12.7539C1.00391 12.6429 1.02851 12.5339 1.07539 12.4343L1.12962 12.3382L3.11288 9.35059C3.86257 9.35057 4.65925 9.84192 4.43242 10.0694C4.43242 10.1804 4.4793 9.96988 4.43242 10.0694L4.3782 10.1655L2.50391 12.9807V16.4999H8.5016V12.9807L6.62731 10.1655C6.56583 10.0732 6.52586 9.96874 6.50972 9.8599L6.5016 9.74987C6.5016 9.52339 7.15741 9.39438 7.91016 9.39463Z" />
        <path d="M7.25 9H6.4993C3.9984 9 6.9961 9.00063 4.502 9H3.75L3.6482 9.00685C3.2822 9.05651 3 9.3703 3 9.75V10.5H4.5H6.5H8V9.75L7.9932 9.64823C7.9435 9.28215 7.6297 9 7.25 9Z" />
        <path d="M4 5C4 4.17157 4.6716 3.5 5.5 3.5C6.3284 3.5 7 4.17157 7 5C7 5.82843 6.3284 6.5 5.5 6.5C4.6716 6.5 4 5.82843 4 5ZM5.5 2C3.8431 2 2.5 3.34315 2.5 5C2.5 6.6569 3.8431 8 5.5 8C7.1569 8 8.5 6.6569 8.5 5C8.5 3.34315 7.1569 2 5.5 2Z" />
        <path d="M15 14L14 14C13.4477 14 13 14.4477 13 15L13 16C13 16.5523 13.4477 17 14 17L20.9838 17C20.9942 17 21.0041 16.9959 21.0114 16.9886V16.9886C22.199 15.801 22.4934 13.9868 21.7423 12.4846L21 11" stroke="black" stroke-width="1.5" stroke-linejoin="round"/>
        <rect x="13" y="20" width="2" height="2" rx="1" />
        <rect x="19" y="20" width="2" height="2" rx="1" />
        <circle cx="17" cy="11" r="1.75" stroke="black" stroke-width="1.5"/>
    </symbol>

    <symbol viewBox="0 0 24 24" id="new-doc">
        <path d="M19.5 20C19.5 20.275 19.276 20.5 19 20.5H13.2678C12.9806 21.051 12.6168 21.5557 12.1904 22H19C20.104 22 21 21.104 21 20V9.828C21 9.298 20.789 8.789 20.414 8.414L14.585 2.586C14.57 2.57105 14.5531 2.55808 14.5363 2.5452C14.5238 2.53567 14.5115 2.5262 14.5 2.516C14.429 2.452 14.359 2.389 14.281 2.336C14.2557 2.31894 14.2281 2.30548 14.2005 2.29207C14.1845 2.28426 14.1685 2.27647 14.153 2.268C14.1363 2.25859 14.1197 2.24897 14.103 2.23933C14.0488 2.20797 13.9944 2.17648 13.937 2.152C13.74 2.07 13.528 2.029 13.313 2.014C13.2933 2.01274 13.2738 2.01008 13.2542 2.00741C13.2271 2.00371 13.1999 2 13.172 2H7C5.896 2 5 2.896 5 4V11.4982C5.47417 11.3004 5.97679 11.1572 6.5 11.0764V4C6.5 3.725 6.724 3.5 7 3.5H13V8C13 9.104 13.896 10 15 10H19.5V20ZM14.5 4.621L18.378 8.5H15C14.724 8.5 14.5 8.275 14.5 8V4.621ZM13 17.5C13 14.4624 10.5376 12 7.5 12C4.46243 12 2 14.4624 2 17.5C2 20.5376 4.46243 23 7.5 23C10.5376 23 13 20.5376 13 17.5ZM8.00065 18L8.00111 20.5035C8.00111 20.7797 7.77725 21.0035 7.50111 21.0035C7.22497 21.0035 7.00111 20.7797 7.00111 20.5035L7.00065 18H4.4956C4.21973 18 3.99609 17.7762 3.99609 17.5C3.99609 17.2239 4.21973 17 4.4956 17H7.00046L7 14.4993C7 14.2231 7.22386 13.9993 7.5 13.9993C7.77614 13.9993 8 14.2231 8 14.4993L8.00046 17H10.4966C10.7725 17 10.9961 17.2239 10.9961 17.5C10.9961 17.7762 10.7725 18 10.4966 18H8.00065Z" />
    </symbol>

    <symbol viewBox="0 0 24 24" id="doc-done">
        <path d="M18.5 20C18.5 20.275 18.276 20.5 18 20.5H12.2678C11.9806 21.051 11.6168 21.5557 11.1904 22H18C19.104 22 20 21.104 20 20V9.828C20 9.298 19.789 8.789 19.414 8.414L13.585 2.586C13.57 2.57105 13.5531 2.55808 13.5363 2.5452C13.5238 2.53567 13.5115 2.5262 13.5 2.516C13.429 2.452 13.359 2.389 13.281 2.336C13.2557 2.31894 13.2281 2.30548 13.2005 2.29207C13.1845 2.28426 13.1685 2.27647 13.153 2.268C13.1363 2.25859 13.1197 2.24897 13.103 2.23933C13.0488 2.20797 12.9944 2.17648 12.937 2.152C12.74 2.07 12.528 2.029 12.313 2.014C12.2933 2.01274 12.2738 2.01008 12.2542 2.00741C12.2271 2.00371 12.1999 2 12.172 2H6C4.896 2 4 2.896 4 4V11.4982C4.47417 11.3004 4.97679 11.1572 5.5 11.0764V4C5.5 3.725 5.724 3.5 6 3.5H12V8C12 9.104 12.896 10 14 10H18.5V20ZM13.5 4.621L17.378 8.5H14C13.724 8.5 13.5 8.275 13.5 8V4.621Z" />
        <path d="M12 17.5C12 20.5376 9.53757 23 6.5 23C3.46243 23 1 20.5376 1 17.5C1 14.4624 3.46243 12 6.5 12C9.53757 12 12 14.4624 12 17.5ZM9.85355 15.1464C9.65829 14.9512 9.34171 14.9512 9.14645 15.1464L5.5 18.7929L3.85355 17.1464C3.65829 16.9512 3.34171 16.9512 3.14645 17.1464C2.95118 17.3417 2.95118 17.6583 3.14645 17.8536L5.14645 19.8536C5.34171 20.0488 5.65829 20.0488 5.85355 19.8536L9.85355 15.8536C10.0488 15.6583 10.0488 15.3417 9.85355 15.1464Z" />
    </symbol>

    <symbol viewBox="0 0 24 24" id="doc-error">
        <path d="M19.5 20C19.5 20.275 19.276 20.5 19 20.5H13.2678C12.9806 21.051 12.6168 21.5557 12.1904 22H19C20.104 22 21 21.104 21 20V9.828C21 9.298 20.789 8.789 20.414 8.414L14.585 2.586C14.57 2.57105 14.5531 2.55808 14.5363 2.5452C14.5238 2.53567 14.5115 2.5262 14.5 2.516C14.429 2.452 14.359 2.389 14.281 2.336C14.2557 2.31894 14.2281 2.30548 14.2005 2.29207C14.1845 2.28426 14.1685 2.27647 14.153 2.268C14.1363 2.25859 14.1197 2.24897 14.103 2.23933C14.0488 2.20797 13.9944 2.17648 13.937 2.152C13.74 2.07 13.528 2.029 13.313 2.014C13.2933 2.01274 13.2738 2.01008 13.2542 2.00741C13.2271 2.00371 13.1999 2 13.172 2H7C5.896 2 5 2.896 5 4V11.4982C5.47417 11.3004 5.97679 11.1572 6.5 11.0764V4C6.5 3.725 6.724 3.5 7 3.5H13V8C13 9.104 13.896 10 15 10H19.5V20ZM14.5 4.621L18.378 8.5H15C14.724 8.5 14.5 8.275 14.5 8V4.621ZM13 17.5C13 20.5376 10.5376 23 7.5 23C4.46243 23 2 20.5376 2 17.5C2 14.4624 4.46243 12 7.5 12C10.5376 12 13 14.4624 13 17.5ZM7.5 14C7.22386 14 7 14.2239 7 14.5V18.5C7 18.7761 7.22386 19 7.5 19C7.77614 19 8 18.7761 8 18.5V14.5C8 14.2239 7.77614 14 7.5 14ZM7.5 21.125C7.84518 21.125 8.125 20.8452 8.125 20.5C8.125 20.1548 7.84518 19.875 7.5 19.875C7.15482 19.875 6.875 20.1548 6.875 20.5C6.875 20.8452 7.15482 21.125 7.5 21.125Z" />
    </symbol>

    <symbol viewBox="0 0 24 24" id="filter-sub-category">
        <path d="M2.7502 19.5C2.3705 19.5 2.0567 19.2178 2.007 18.8518L2.0002 18.75L2.0002 5.7459C2.0002 5.3317 2.336 4.9959 2.7502 4.9959C3.1299 4.9959 3.4437 5.2781 3.4934 5.6442L3.5002 5.7459L3.5002 18.75C3.5002 19.1642 3.1644 19.5 2.7502 19.5ZM11.3531 17.6963L11.2805 17.7804C11.0142 18.0466 10.5975 18.0708 10.3039 17.8529L10.2198 17.7803L5.2232 12.7826C4.9571 12.5165 4.9328 12.1001 5.1504 11.8065L5.2229 11.7224L10.2195 6.7189C10.5122 6.4258 10.9871 6.4255 11.2802 6.7182C11.5466 6.9843 11.5711 7.4009 11.3535 7.6947L11.2809 7.7789L7.57 11.496L21.25 11.4951C21.6297 11.4951 21.9435 11.7772 21.9932 12.1433L22 12.2451C22 12.6247 21.7179 12.9385 21.3518 12.9882L21.25 12.9951L7.557 12.996L11.2806 16.7197C11.5468 16.986 11.571 17.4027 11.3531 17.6963Z" />
    </symbol>

    <symbol viewBox="0 0 24 24" id="cross">
        <g clip-path="url(#clip0_2933_20867)">
            <path d="M17.938 5.56049C18.2065 5.82898 18.229 6.25035 18.0053 6.54434L17.9382 6.62118L12.8125 11.7487L17.9412 16.8774C18.2341 17.1703 18.2341 17.6452 17.9412 17.938C17.6727 18.2065 17.2512 18.2289 16.9573 18.0052L16.8805 17.938L11.7518 12.8093L6.62732 17.9366C6.33451 18.2296 5.85955 18.2298 5.56666 17.9369C5.29817 17.6684 5.27562 17.2471 5.49935 16.953L5.56645 16.8762L10.6911 11.7487L5.56532 6.62284C5.27242 6.32995 5.27243 5.85507 5.56532 5.56218C5.83381 5.2937 6.25521 5.27132 6.54921 5.49503L6.62598 5.56218L11.7518 10.688L16.8774 5.56073C17.1702 5.26777 17.6451 5.2676 17.938 5.56049Z" />
        </g>
        <defs>
            <clipPath id="clip0_2933_20867">
                <rect width="24" height="24" />
            </clipPath>
        </defs>
    </symbol>

    <symbol viewBox="0 0 24 24" id="telegram">
        <path d="M19.2,4.4L2.9,10.7c-1.1,0.4-1.1,1.1-0.2,1.3l4.1,1.3l1.6,4.8c0.2,0.5,0.1,0.7,0.6,0.7c0.4,0,0.6-0.2,0.8-0.4 c0.1-0.1,1-1,2-2l4.2,3.1c0.8,0.4,1.3,0.2,1.5-0.7l2.8-13.1C20.6,4.6,19.9,4,19.2,4.4z M17.1,7.4l-7.8,7.1L9,17.8L7.4,13l9.2-5.8 C17,6.9,17.4,7.1,17.1,7.4z"/>
    </symbol>

    <symbol viewBox="0 0 24 24" id="vkontakte">
        <path d="m23.456 5.784c-.27.849-.634 1.588-1.09 2.259l.019-.03q-.672 1.12-1.605 2.588-.8 1.159-.847 1.2c-.138.173-.234.385-.267.618l-.001.007c.027.212.125.397.268.535l.4.446q3.21 3.299 3.611 4.548c.035.092.055.198.055.309 0 .194-.062.373-.167.52l.002-.003c-.176.181-.422.293-.694.293-.03 0-.061-.001-.09-.004h.004-2.631c-.001 0-.003 0-.005 0-.337 0-.647-.118-.89-.314l.003.002c-.354-.291-.669-.606-.951-.948l-.009-.012q-.691-.781-1.226-1.315-1.782-1.694-2.63-1.694c-.021-.002-.045-.003-.07-.003-.165 0-.319.051-.446.138l.003-.002c-.104.13-.167.298-.167.479 0 .036.002.07.007.105v-.004c-.027.314-.043.679-.043 1.048 0 .119.002.237.005.355v-.017 1.159c.01.047.016.101.016.156 0 .242-.11.458-.282.601l-.001.001c-.387.177-.839.281-1.316.281-.102 0-.202-.005-.301-.014l.013.001c-1.574-.03-3.034-.491-4.275-1.268l.035.02c-1.511-.918-2.763-2.113-3.717-3.525l-.027-.042c-.906-1.202-1.751-2.56-2.471-3.992l-.07-.154c-.421-.802-.857-1.788-1.233-2.802l-.06-.185c-.153-.456-.264-.986-.31-1.535l-.002-.025q0-.758.892-.758h2.63c.024-.002.052-.003.081-.003.248 0 .477.085.658.228l-.002-.002c.2.219.348.488.421.788l.003.012c.484 1.367.997 2.515 1.587 3.615l-.067-.137c.482.97 1.015 1.805 1.623 2.576l-.023-.031q.8.982 1.248.982c.009.001.02.001.032.001.148 0 .277-.08.347-.2l.001-.002c.074-.19.117-.411.117-.641 0-.049-.002-.098-.006-.146v.006-3.879c-.021-.457-.133-.884-.32-1.267l.008.019c-.124-.264-.273-.492-.45-.695l.003.004c-.164-.164-.276-.379-.311-.619l-.001-.006c0-.17.078-.323.2-.423l.001-.001c.121-.111.283-.178.46-.178h.008 4.146c.022-.003.047-.004.073-.004.195 0 .37.088.486.226l.001.001c.103.188.164.413.164.651 0 .038-.002.075-.005.112v-.005 5.173c-.002.024-.003.052-.003.08 0 .184.051.357.139.504l-.002-.004c.073.108.195.178.333.178h.001c.176-.012.336-.07.471-.162l-.003.002c.272-.187.506-.4.709-.641l.004-.005c.607-.686 1.167-1.444 1.655-2.25l.039-.07c.344-.57.716-1.272 1.053-1.993l.062-.147.446-.892c.155-.446.571-.76 1.06-.76.019 0 .038 0 .057.001h-.003 2.631q1.066 0 .8.981z"/>
    </symbol>
</svg>
